<svg width="29" height="28" viewBox="0 0 29 28" fill="none" xmlns="http://www.w3.org/2000/svg">
<path d="M13.4427 25.9362C13.9776 26.2414 14.627 26.2241 15.1599 25.9152C18.2831 24.1052 23.573 20.0546 25.6663 14.8125C28.7779 7.90086 21.4719 2.38354 16.4226 6.35179C15.9209 6.74606 15.2962 7.19458 14.8441 7.62411C14.601 7.85512 14.1764 7.8787 13.9261 7.65547C13.3259 7.12018 12.4365 6.45753 11.8576 6.06585C7.55289 3.15343 -0.27966 6.9925 3.06143 15.186C4.27164 18.8225 9.98762 23.9647 13.4427 25.9362Z" fill="#FF2C3B"/>
<path d="M13.4427 25.9362C13.9776 26.2414 14.627 26.2241 15.1599 25.9152C18.2831 24.1052 23.573 20.0546 25.6663 14.8125C28.7779 7.90086 21.4719 2.38354 16.4226 6.35179C15.9209 6.74606 15.2962 7.19458 14.8441 7.62411C14.601 7.85512 14.1764 7.8787 13.9261 7.65547C13.3259 7.12018 12.4365 6.45753 11.8576 6.06585C7.55289 3.15343 -0.27966 6.9925 3.06143 15.186C4.27164 18.8225 9.98762 23.9647 13.4427 25.9362Z" fill="url(#paint0_radial_13419_45208)"/>
<path d="M13.4427 25.9362C13.9776 26.2414 14.627 26.2241 15.1599 25.9152C18.2831 24.1052 23.573 20.0546 25.6663 14.8125C28.7779 7.90086 21.4719 2.38354 16.4226 6.35179C15.9209 6.74606 15.2962 7.19458 14.8441 7.62411C14.601 7.85512 14.1764 7.8787 13.9261 7.65547C13.3259 7.12018 12.4365 6.45753 11.8576 6.06585C7.55289 3.15343 -0.27966 6.9925 3.06143 15.186C4.27164 18.8225 9.98762 23.9647 13.4427 25.9362Z" fill="url(#paint1_radial_13419_45208)"/>
<path d="M13.4427 25.9362C13.9776 26.2414 14.627 26.2241 15.1599 25.9152C18.2831 24.1052 23.573 20.0546 25.6663 14.8125C28.7779 7.90086 21.4719 2.38354 16.4226 6.35179C15.9209 6.74606 15.2962 7.19458 14.8441 7.62411C14.601 7.85512 14.1764 7.8787 13.9261 7.65547C13.3259 7.12018 12.4365 6.45753 11.8576 6.06585C7.55289 3.15343 -0.27966 6.9925 3.06143 15.186C4.27164 18.8225 9.98762 23.9647 13.4427 25.9362Z" fill="url(#paint2_radial_13419_45208)"/>
<path d="M13.4427 25.9362C13.9776 26.2414 14.627 26.2241 15.1599 25.9152C18.2831 24.1052 23.573 20.0546 25.6663 14.8125C28.7779 7.90086 21.4719 2.38354 16.4226 6.35179C15.9209 6.74606 15.2962 7.19458 14.8441 7.62411C14.601 7.85512 14.1764 7.8787 13.9261 7.65547C13.3259 7.12018 12.4365 6.45753 11.8576 6.06585C7.55289 3.15343 -0.27966 6.9925 3.06143 15.186C4.27164 18.8225 9.98762 23.9647 13.4427 25.9362Z" fill="url(#paint3_radial_13419_45208)"/>
<path d="M13.4427 25.9362C13.9776 26.2414 14.627 26.2241 15.1599 25.9152C18.2831 24.1052 23.573 20.0546 25.6663 14.8125C28.7779 7.90086 21.4719 2.38354 16.4226 6.35179C15.9209 6.74606 15.2962 7.19458 14.8441 7.62411C14.601 7.85512 14.1764 7.8787 13.9261 7.65547C13.3259 7.12018 12.4365 6.45753 11.8576 6.06585C7.55289 3.15343 -0.27966 6.9925 3.06143 15.186C4.27164 18.8225 9.98762 23.9647 13.4427 25.9362Z" fill="url(#paint4_linear_13419_45208)"/>
<path d="M13.4427 25.9362C13.9776 26.2414 14.627 26.2241 15.1599 25.9152C18.2831 24.1052 23.573 20.0546 25.6663 14.8125C28.7779 7.90086 21.4719 2.38354 16.4226 6.35179C15.9209 6.74606 15.2962 7.19458 14.8441 7.62411C14.601 7.85512 14.1764 7.8787 13.9261 7.65547C13.3259 7.12018 12.4365 6.45753 11.8576 6.06585C7.55289 3.15343 -0.27966 6.9925 3.06143 15.186C4.27164 18.8225 9.98762 23.9647 13.4427 25.9362Z" fill="url(#paint5_radial_13419_45208)"/>
<path d="M13.4427 25.9362C13.9776 26.2414 14.627 26.2241 15.1599 25.9152C18.2831 24.1052 23.573 20.0546 25.6663 14.8125C28.7779 7.90086 21.4719 2.38354 16.4226 6.35179C15.9209 6.74606 15.2962 7.19458 14.8441 7.62411C14.601 7.85512 14.1764 7.8787 13.9261 7.65547C13.3259 7.12018 12.4365 6.45753 11.8576 6.06585C7.55289 3.15343 -0.27966 6.9925 3.06143 15.186C4.27164 18.8225 9.98762 23.9647 13.4427 25.9362Z" fill="url(#paint6_radial_13419_45208)"/>
<path d="M13.4427 25.9362C13.9776 26.2414 14.627 26.2241 15.1599 25.9152C18.2831 24.1052 23.573 20.0546 25.6663 14.8125C28.7779 7.90086 21.4719 2.38354 16.4226 6.35179C15.9209 6.74606 15.2962 7.19458 14.8441 7.62411C14.601 7.85512 14.1764 7.8787 13.9261 7.65547C13.3259 7.12018 12.4365 6.45753 11.8576 6.06585C7.55289 3.15343 -0.27966 6.9925 3.06143 15.186C4.27164 18.8225 9.98762 23.9647 13.4427 25.9362Z" fill="url(#paint7_radial_13419_45208)"/>
<path d="M13.4427 25.9362C13.9776 26.2414 14.627 26.2241 15.1599 25.9152C18.2831 24.1052 23.573 20.0546 25.6663 14.8125C28.7779 7.90086 21.4719 2.38354 16.4226 6.35179C15.9209 6.74606 15.2962 7.19458 14.8441 7.62411C14.601 7.85512 14.1764 7.8787 13.9261 7.65547C13.3259 7.12018 12.4365 6.45753 11.8576 6.06585C7.55289 3.15343 -0.27966 6.9925 3.06143 15.186C4.27164 18.8225 9.98762 23.9647 13.4427 25.9362Z" fill="url(#paint8_radial_13419_45208)"/>
<path d="M13.4427 25.9362C13.9776 26.2414 14.627 26.2241 15.1599 25.9152C18.2831 24.1052 23.573 20.0546 25.6663 14.8125C28.7779 7.90086 21.4719 2.38354 16.4226 6.35179C15.9209 6.74606 15.2962 7.19458 14.8441 7.62411C14.601 7.85512 14.1764 7.8787 13.9261 7.65547C13.3259 7.12018 12.4365 6.45753 11.8576 6.06585C7.55289 3.15343 -0.27966 6.9925 3.06143 15.186C4.27164 18.8225 9.98762 23.9647 13.4427 25.9362Z" fill="url(#paint9_radial_13419_45208)"/>
<path d="M13.4427 25.9362C13.9776 26.2414 14.627 26.2241 15.1599 25.9152C18.2831 24.1052 23.573 20.0546 25.6663 14.8125C28.7779 7.90086 21.4719 2.38354 16.4226 6.35179C15.9209 6.74606 15.2962 7.19458 14.8441 7.62411C14.601 7.85512 14.1764 7.8787 13.9261 7.65547C13.3259 7.12018 12.4365 6.45753 11.8576 6.06585C7.55289 3.15343 -0.27966 6.9925 3.06143 15.186C4.27164 18.8225 9.98762 23.9647 13.4427 25.9362Z" fill="url(#paint10_radial_13419_45208)"/>
<path d="M13.4427 25.9362C13.9776 26.2414 14.627 26.2241 15.1599 25.9152C18.2831 24.1052 23.573 20.0546 25.6663 14.8125C28.7779 7.90086 21.4719 2.38354 16.4226 6.35179C15.9209 6.74606 15.2962 7.19458 14.8441 7.62411C14.601 7.85512 14.1764 7.8787 13.9261 7.65547C13.3259 7.12018 12.4365 6.45753 11.8576 6.06585C7.55289 3.15343 -0.27966 6.9925 3.06143 15.186C4.27164 18.8225 9.98762 23.9647 13.4427 25.9362Z" fill="url(#paint11_linear_13419_45208)"/>
<path d="M13.4427 25.9362C13.9776 26.2414 14.627 26.2241 15.1599 25.9152C18.2831 24.1052 23.573 20.0546 25.6663 14.8125C28.7779 7.90086 21.4719 2.38354 16.4226 6.35179C15.9209 6.74606 15.2962 7.19458 14.8441 7.62411C14.601 7.85512 14.1764 7.8787 13.9261 7.65547C13.3259 7.12018 12.4365 6.45753 11.8576 6.06585C7.55289 3.15343 -0.27966 6.9925 3.06143 15.186C4.27164 18.8225 9.98762 23.9647 13.4427 25.9362Z" fill="url(#paint12_linear_13419_45208)"/>
<path d="M13.4427 25.9362C13.9776 26.2414 14.627 26.2241 15.1599 25.9152C18.2831 24.1052 23.573 20.0546 25.6663 14.8125C28.7779 7.90086 21.4719 2.38354 16.4226 6.35179C15.9209 6.74606 15.2962 7.19458 14.8441 7.62411C14.601 7.85512 14.1764 7.8787 13.9261 7.65547C13.3259 7.12018 12.4365 6.45753 11.8576 6.06585C7.55289 3.15343 -0.27966 6.9925 3.06143 15.186C4.27164 18.8225 9.98762 23.9647 13.4427 25.9362Z" fill="url(#paint13_linear_13419_45208)"/>
<path d="M13.4427 25.9362C13.9776 26.2414 14.627 26.2241 15.1599 25.9152C18.2831 24.1052 23.573 20.0546 25.6663 14.8125C28.7779 7.90086 21.4719 2.38354 16.4226 6.35179C15.9209 6.74606 15.2962 7.19458 14.8441 7.62411C14.601 7.85512 14.1764 7.8787 13.9261 7.65547C13.3259 7.12018 12.4365 6.45753 11.8576 6.06585C7.55289 3.15343 -0.27966 6.9925 3.06143 15.186C4.27164 18.8225 9.98762 23.9647 13.4427 25.9362Z" fill="url(#paint14_radial_13419_45208)"/>
<path d="M13.4427 25.9362C13.9776 26.2414 14.627 26.2241 15.1599 25.9152C18.2831 24.1052 23.573 20.0546 25.6663 14.8125C28.7779 7.90086 21.4719 2.38354 16.4226 6.35179C15.9209 6.74606 15.2962 7.19458 14.8441 7.62411C14.601 7.85512 14.1764 7.8787 13.9261 7.65547C13.3259 7.12018 12.4365 6.45753 11.8576 6.06585C7.55289 3.15343 -0.27966 6.9925 3.06143 15.186C4.27164 18.8225 9.98762 23.9647 13.4427 25.9362Z" fill="url(#paint15_radial_13419_45208)"/>
<path d="M13.4427 25.9362C13.9776 26.2414 14.627 26.2241 15.1599 25.9152C18.2831 24.1052 23.573 20.0546 25.6663 14.8125C28.7779 7.90086 21.4719 2.38354 16.4226 6.35179C15.9209 6.74606 15.2962 7.19458 14.8441 7.62411C14.601 7.85512 14.1764 7.8787 13.9261 7.65547C13.3259 7.12018 12.4365 6.45753 11.8576 6.06585C7.55289 3.15343 -0.27966 6.9925 3.06143 15.186C4.27164 18.8225 9.98762 23.9647 13.4427 25.9362Z" fill="url(#paint16_radial_13419_45208)"/>
<defs>
<radialGradient id="paint0_radial_13419_45208" cx="0" cy="0" r="1" gradientUnits="userSpaceOnUse" gradientTransform="translate(31.7344 16.997) rotate(166.261) scale(30.4321)">
<stop offset="0.46875" stop-color="#B91D43" stop-opacity="0"/>
<stop offset="0.625" stop-color="#B91D43"/>
</radialGradient>
<radialGradient id="paint1_radial_13419_45208" cx="0" cy="0" r="1" gradientUnits="userSpaceOnUse" gradientTransform="translate(28.0493 9.1662) rotate(43.4926) scale(24.763 25.4999)">
<stop offset="0.436191" stop-color="#FF2C64" stop-opacity="0"/>
<stop offset="0.579111" stop-color="#FF2839"/>
<stop offset="0.820977" stop-color="#FF2839"/>
</radialGradient>
<radialGradient id="paint2_radial_13419_45208" cx="0" cy="0" r="1" gradientUnits="userSpaceOnUse" gradientTransform="translate(24.8249 7.32367) rotate(130.697) scale(13.6622 4.22943)">
<stop offset="0.241492" stop-color="#FF6975"/>
<stop offset="1" stop-color="#FF6975" stop-opacity="0"/>
</radialGradient>
<radialGradient id="paint3_radial_13419_45208" cx="0" cy="0" r="1" gradientUnits="userSpaceOnUse" gradientTransform="translate(10.0847 6.86304) rotate(74.876) scale(17.6549 6.68494)">
<stop stop-color="#FF8E9D"/>
<stop offset="0.829857" stop-color="#FF8191" stop-opacity="0"/>
</radialGradient>
<linearGradient id="paint4_linear_13419_45208" x1="22.5217" y1="11.4694" x2="11.9272" y2="12.3906" gradientUnits="userSpaceOnUse">
<stop offset="0.592259" stop-color="#FF2F48" stop-opacity="0"/>
<stop offset="0.728317" stop-color="#FF2F48"/>
<stop offset="0.889416" stop-color="#FF2F48" stop-opacity="0"/>
</linearGradient>
<radialGradient id="paint5_radial_13419_45208" cx="0" cy="0" r="1" gradientUnits="userSpaceOnUse" gradientTransform="translate(10.5453 22.5245) rotate(114.057) scale(84.7476 66.6343)">
<stop offset="0.213872" stop-color="#FF4750" stop-opacity="0"/>
<stop offset="0.280316" stop-color="#FF4750"/>
</radialGradient>
<radialGradient id="paint6_radial_13419_45208" cx="0" cy="0" r="1" gradientUnits="userSpaceOnUse" gradientTransform="translate(9.62402 4.55988) rotate(75.0686) scale(7.15094)">
<stop offset="0.226211" stop-color="#FF4851"/>
<stop offset="1" stop-color="#FF4851" stop-opacity="0"/>
</radialGradient>
<radialGradient id="paint7_radial_13419_45208" cx="0" cy="0" r="1" gradientUnits="userSpaceOnUse" gradientTransform="translate(7.60388 13.307) rotate(36.0274) scale(5.95064)">
<stop offset="0.226211" stop-color="#FF4851"/>
<stop offset="1" stop-color="#FF4851" stop-opacity="0"/>
</radialGradient>
<radialGradient id="paint8_radial_13419_45208" cx="0" cy="0" r="1" gradientUnits="userSpaceOnUse" gradientTransform="translate(11.9272 4.55987) rotate(93.8141) scale(6.92482)">
<stop offset="0.226211" stop-color="#FF4851"/>
<stop offset="0.631601" stop-color="#FF4851" stop-opacity="0"/>
</radialGradient>
<radialGradient id="paint9_radial_13419_45208" cx="0" cy="0" r="1" gradientUnits="userSpaceOnUse" gradientTransform="translate(28.0493 9.1662) rotate(45.6161) scale(30.2934 31.1949)">
<stop offset="0.605375" stop-color="#D32750" stop-opacity="0"/>
<stop offset="0.760922" stop-color="#D32750"/>
</radialGradient>
<radialGradient id="paint10_radial_13419_45208" cx="0" cy="0" r="1" gradientUnits="userSpaceOnUse" gradientTransform="translate(23.9036 17.9182) rotate(26.9802) scale(28.4289 17.7243)">
<stop offset="0.734432" stop-color="#C03D60" stop-opacity="0"/>
<stop offset="0.785127" stop-color="#C03D60"/>
</radialGradient>
<linearGradient id="paint11_linear_13419_45208" x1="15.0414" y1="26.8695" x2="15.4789" y2="8.057" gradientUnits="userSpaceOnUse">
<stop stop-color="#FB31AD"/>
<stop offset="0.792966" stop-color="#FB31AD" stop-opacity="0"/>
</linearGradient>
<linearGradient id="paint12_linear_13419_45208" x1="7.7815" y1="28.0521" x2="15.1516" y2="18.8395" gradientUnits="userSpaceOnUse">
<stop offset="0.389423" stop-color="#CF55BC"/>
<stop offset="0.508449" stop-color="#CF55BC" stop-opacity="0"/>
</linearGradient>
<linearGradient id="paint13_linear_13419_45208" x1="21.1664" y1="26.8695" x2="15.1516" y2="18.8395" gradientUnits="userSpaceOnUse">
<stop offset="0.389423" stop-color="#CF55BC"/>
<stop offset="0.508449" stop-color="#CF55BC" stop-opacity="0"/>
</linearGradient>
<radialGradient id="paint14_radial_13419_45208" cx="0" cy="0" r="1" gradientUnits="userSpaceOnUse" gradientTransform="translate(14.691 27.1309) rotate(-86.8202) scale(8.30417 9.49192)">
<stop offset="0.0975182" stop-color="#CF55BC"/>
<stop offset="0.250164" stop-color="#CF55BC" stop-opacity="0"/>
</radialGradient>
<radialGradient id="paint15_radial_13419_45208" cx="0" cy="0" r="1" gradientUnits="userSpaceOnUse" gradientTransform="translate(8.91638 25.1195) rotate(127.569) scale(7.17553 21.1499)">
<stop stop-color="#B51D85"/>
<stop offset="0.547667" stop-color="#B51D85" stop-opacity="0"/>
</radialGradient>
<radialGradient id="paint16_radial_13419_45208" cx="0" cy="0" r="1" gradientUnits="userSpaceOnUse" gradientTransform="translate(4.54138 22.932) rotate(154.654) scale(9.19791 27.1109)">
<stop stop-color="#B51D85"/>
<stop offset="0.547667" stop-color="#B51D85" stop-opacity="0"/>
</radialGradient>
</defs>
</svg>
