<svg width="29" height="28" viewBox="0 0 29 28" fill="none" xmlns="http://www.w3.org/2000/svg">
<path d="M16.6833 21.7487C17.0676 21.5812 17.2274 21.3359 17.343 21.1916C18.3801 19.8961 16.1672 16.051 13.0078 13.826C9.65938 10.9104 5.97255 9.91683 4.93539 11.2123C4.75738 11.4346 4.61787 11.7375 4.55977 12.0793L2.59101 23.4065C2.52265 24.7873 3.05043 25.312 3.31454 25.5684C3.79314 26.0329 4.72383 26.4279 5.69453 26.0861C9.44063 24.6438 12.9501 23.3763 16.6833 21.7487Z" fill="url(#paint0_linear_13419_45212)"/>
<path d="M16.6833 21.7487C17.0676 21.5812 17.2274 21.3359 17.343 21.1916C18.3801 19.8961 16.1672 16.051 13.0078 13.826C9.65938 10.9104 5.97255 9.91683 4.93539 11.2123C4.75738 11.4346 4.61787 11.7375 4.55977 12.0793L2.59101 23.4065C2.52265 24.7873 3.05043 25.312 3.31454 25.5684C3.79314 26.0329 4.72383 26.4279 5.69453 26.0861C9.44063 24.6438 12.9501 23.3763 16.6833 21.7487Z" fill="url(#paint1_linear_13419_45212)"/>
<path d="M16.6833 21.7487C17.0676 21.5812 17.2274 21.3359 17.343 21.1916C18.3801 19.8961 16.1672 16.051 13.0078 13.826C9.65938 10.9104 5.97255 9.91683 4.93539 11.2123C4.75738 11.4346 4.61787 11.7375 4.55977 12.0793L2.59101 23.4065C2.52265 24.7873 3.05043 25.312 3.31454 25.5684C3.79314 26.0329 4.72383 26.4279 5.69453 26.0861C9.44063 24.6438 12.9501 23.3763 16.6833 21.7487Z" fill="url(#paint2_linear_13419_45212)"/>
<path d="M16.6833 21.7487C17.0676 21.5812 17.2274 21.3359 17.343 21.1916C18.3801 19.8961 16.1672 16.051 13.0078 13.826C9.65938 10.9104 5.97255 9.91683 4.93539 11.2123C4.75738 11.4346 4.61787 11.7375 4.55977 12.0793L2.59101 23.4065C2.52265 24.7873 3.05043 25.312 3.31454 25.5684C3.79314 26.0329 4.72383 26.4279 5.69453 26.0861C9.44063 24.6438 12.9501 23.3763 16.6833 21.7487Z" fill="url(#paint3_linear_13419_45212)"/>
<path d="M16.6833 21.7487C17.0676 21.5812 17.2274 21.3359 17.343 21.1916C18.3801 19.8961 16.1672 16.051 13.0078 13.826C9.65938 10.9104 5.97255 9.91683 4.93539 11.2123C4.75738 11.4346 4.61787 11.7375 4.55977 12.0793L2.59101 23.4065C2.52265 24.7873 3.05043 25.312 3.31454 25.5684C3.79314 26.0329 4.72383 26.4279 5.69453 26.0861C9.44063 24.6438 12.9501 23.3763 16.6833 21.7487Z" fill="url(#paint4_radial_13419_45212)"/>
<ellipse cx="11.3183" cy="15.9137" rx="7.11395" ry="2.55094" transform="rotate(39.7456 11.3183 15.9137)" fill="url(#paint5_linear_13419_45212)"/>
<ellipse cx="11.3183" cy="15.9137" rx="7.11395" ry="2.55094" transform="rotate(39.7456 11.3183 15.9137)" fill="url(#paint6_radial_13419_45212)"/>
<ellipse cx="11.3183" cy="15.9137" rx="7.11395" ry="2.55094" transform="rotate(39.7456 11.3183 15.9137)" fill="url(#paint7_radial_13419_45212)"/>
<circle cx="13.4199" cy="14" r="1.05273" fill="url(#paint8_radial_13419_45212)"/>
<circle cx="13.4199" cy="14" r="1.05273" fill="url(#paint9_radial_13419_45212)"/>
<circle cx="22.0605" cy="20.043" r="1.05273" fill="url(#paint10_radial_13419_45212)"/>
<circle cx="22.0605" cy="20.043" r="1.05273" fill="url(#paint11_radial_13419_45212)"/>
<circle cx="22.0605" cy="20.043" r="1.05273" fill="url(#paint12_radial_13419_45212)"/>
<circle cx="21.1787" cy="6.13867" r="1.05273" fill="url(#paint13_radial_13419_45212)"/>
<circle cx="21.1787" cy="6.13867" r="1.05273" fill="url(#paint14_radial_13419_45212)"/>
<ellipse cx="9.0752" cy="2.94629" rx="1.05273" ry="1.05273" fill="url(#paint15_radial_13419_45212)"/>
<ellipse cx="9.0752" cy="2.94629" rx="1.05273" ry="1.05273" fill="url(#paint16_radial_13419_45212)"/>
<ellipse cx="9.0752" cy="2.94629" rx="1.05273" ry="1.05273" fill="url(#paint17_radial_13419_45212)"/>
<ellipse cx="4.64551" cy="7.0957" rx="1.05273" ry="1.05273" fill="url(#paint18_radial_13419_45212)"/>
<ellipse cx="4.64551" cy="7.0957" rx="1.05273" ry="1.05273" fill="url(#paint19_radial_13419_45212)"/>
<path fill-rule="evenodd" clip-rule="evenodd" d="M17.0493 1.82221C17.5079 1.84365 17.8622 2.23279 17.8408 2.69138C17.8113 3.32277 17.6964 4.37458 17.4221 5.49808C17.1928 6.43717 16.8398 7.47877 16.2964 8.37177C16.4278 9.06845 16.4313 9.8905 16.287 10.8252C16.217 11.279 15.7924 11.59 15.3387 11.52C14.885 11.45 14.574 11.0254 14.644 10.5717C14.6763 10.3625 14.6992 10.1667 14.7139 9.98337C14.5526 10.0675 14.3873 10.1335 14.2186 10.1806C13.5596 10.3647 12.9276 10.2371 12.4332 9.90776C11.494 9.28208 11.0609 7.9129 11.7879 6.79354C12.4795 5.72869 13.921 5.43917 15.017 6.19679C15.1434 6.28414 15.2621 6.38257 15.3727 6.49178C15.5476 6.04954 15.6913 5.57765 15.807 5.1038C16.053 4.09599 16.155 3.15129 16.1801 2.61373C16.2016 2.15515 16.5907 1.80077 17.0493 1.82221ZM14.4705 8.07014C14.3443 7.80736 14.1945 7.64921 14.0717 7.56438C13.7288 7.32737 13.3519 7.43775 13.1822 7.69908C13.0002 7.97929 13.0964 8.35195 13.3549 8.52415C13.4594 8.59376 13.5934 8.6291 13.7712 8.57941C13.9321 8.53445 14.1784 8.40388 14.4705 8.07014Z" fill="url(#paint20_linear_13419_45212)"/>
<path fill-rule="evenodd" clip-rule="evenodd" d="M17.0493 1.82221C17.5079 1.84365 17.8622 2.23279 17.8408 2.69138C17.8113 3.32277 17.6964 4.37458 17.4221 5.49808C17.1928 6.43717 16.8398 7.47877 16.2964 8.37177C16.4278 9.06845 16.4313 9.8905 16.287 10.8252C16.217 11.279 15.7924 11.59 15.3387 11.52C14.885 11.45 14.574 11.0254 14.644 10.5717C14.6763 10.3625 14.6992 10.1667 14.7139 9.98337C14.5526 10.0675 14.3873 10.1335 14.2186 10.1806C13.5596 10.3647 12.9276 10.2371 12.4332 9.90776C11.494 9.28208 11.0609 7.9129 11.7879 6.79354C12.4795 5.72869 13.921 5.43917 15.017 6.19679C15.1434 6.28414 15.2621 6.38257 15.3727 6.49178C15.5476 6.04954 15.6913 5.57765 15.807 5.1038C16.053 4.09599 16.155 3.15129 16.1801 2.61373C16.2016 2.15515 16.5907 1.80077 17.0493 1.82221ZM14.4705 8.07014C14.3443 7.80736 14.1945 7.64921 14.0717 7.56438C13.7288 7.32737 13.3519 7.43775 13.1822 7.69908C13.0002 7.97929 13.0964 8.35195 13.3549 8.52415C13.4594 8.59376 13.5934 8.6291 13.7712 8.57941C13.9321 8.53445 14.1784 8.40388 14.4705 8.07014Z" fill="url(#paint21_radial_13419_45212)"/>
<path fill-rule="evenodd" clip-rule="evenodd" d="M17.0493 1.82221C17.5079 1.84365 17.8622 2.23279 17.8408 2.69138C17.8113 3.32277 17.6964 4.37458 17.4221 5.49808C17.1928 6.43717 16.8398 7.47877 16.2964 8.37177C16.4278 9.06845 16.4313 9.8905 16.287 10.8252C16.217 11.279 15.7924 11.59 15.3387 11.52C14.885 11.45 14.574 11.0254 14.644 10.5717C14.6763 10.3625 14.6992 10.1667 14.7139 9.98337C14.5526 10.0675 14.3873 10.1335 14.2186 10.1806C13.5596 10.3647 12.9276 10.2371 12.4332 9.90776C11.494 9.28208 11.0609 7.9129 11.7879 6.79354C12.4795 5.72869 13.921 5.43917 15.017 6.19679C15.1434 6.28414 15.2621 6.38257 15.3727 6.49178C15.5476 6.04954 15.6913 5.57765 15.807 5.1038C16.053 4.09599 16.155 3.15129 16.1801 2.61373C16.2016 2.15515 16.5907 1.80077 17.0493 1.82221ZM14.4705 8.07014C14.3443 7.80736 14.1945 7.64921 14.0717 7.56438C13.7288 7.32737 13.3519 7.43775 13.1822 7.69908C13.0002 7.97929 13.0964 8.35195 13.3549 8.52415C13.4594 8.59376 13.5934 8.6291 13.7712 8.57941C13.9321 8.53445 14.1784 8.40388 14.4705 8.07014Z" fill="url(#paint22_radial_13419_45212)"/>
<path fill-rule="evenodd" clip-rule="evenodd" d="M17.0493 1.82221C17.5079 1.84365 17.8622 2.23279 17.8408 2.69138C17.8113 3.32277 17.6964 4.37458 17.4221 5.49808C17.1928 6.43717 16.8398 7.47877 16.2964 8.37177C16.4278 9.06845 16.4313 9.8905 16.287 10.8252C16.217 11.279 15.7924 11.59 15.3387 11.52C14.885 11.45 14.574 11.0254 14.644 10.5717C14.6763 10.3625 14.6992 10.1667 14.7139 9.98337C14.5526 10.0675 14.3873 10.1335 14.2186 10.1806C13.5596 10.3647 12.9276 10.2371 12.4332 9.90776C11.494 9.28208 11.0609 7.9129 11.7879 6.79354C12.4795 5.72869 13.921 5.43917 15.017 6.19679C15.1434 6.28414 15.2621 6.38257 15.3727 6.49178C15.5476 6.04954 15.6913 5.57765 15.807 5.1038C16.053 4.09599 16.155 3.15129 16.1801 2.61373C16.2016 2.15515 16.5907 1.80077 17.0493 1.82221ZM14.4705 8.07014C14.3443 7.80736 14.1945 7.64921 14.0717 7.56438C13.7288 7.32737 13.3519 7.43775 13.1822 7.69908C13.0002 7.97929 13.0964 8.35195 13.3549 8.52415C13.4594 8.59376 13.5934 8.6291 13.7712 8.57941C13.9321 8.53445 14.1784 8.40388 14.4705 8.07014Z" fill="url(#paint23_radial_13419_45212)"/>
<path d="M14.291 22.7578C12.0108 22.5994 10.4115 21.9169 7.82039 19.7761C5.5914 17.9345 4.48477 16.3008 4.11541 14.6348L3.6875 17.0967C3.86238 18.0603 4.61434 19.407 6.10457 20.7537C8.05363 22.515 9.99422 23.7615 11.9133 23.7068C12.7032 23.3984 13.4941 23.0839 14.291 22.7578Z" fill="url(#paint24_radial_13419_45212)"/>
<path d="M9.48275 24.6427C8.38683 24.7038 6.90474 23.8097 5.36666 22.5314C4.05416 21.3966 3.40675 20.1638 3.27049 19.4985L2.83594 21.9987C2.94342 22.4214 3.27077 22.9958 4.21822 23.9669C5.27766 25.0529 6.34306 25.4755 6.97575 25.5956C7.42469 25.4245 7.87091 25.2551 8.31526 25.0864C8.70569 24.9382 9.09467 24.7905 9.48275 24.6427Z" fill="url(#paint25_radial_13419_45212)"/>
<path fill-rule="evenodd" clip-rule="evenodd" d="M24.7485 11.4703C21.6003 10.8553 19.7401 12.2976 19.1505 12.9444C18.8086 13.3194 18.2275 13.3462 17.8525 13.0044C17.4776 12.6626 17.4507 12.0815 17.7925 11.7065C18.7068 10.7036 21.1805 8.90107 25.1008 9.66691C25.5988 9.76419 25.9236 10.2468 25.8263 10.7448C25.729 11.2428 25.2465 11.5676 24.7485 11.4703Z" fill="url(#paint26_radial_13419_45212)"/>
<path fill-rule="evenodd" clip-rule="evenodd" d="M24.7485 11.4703C21.6003 10.8553 19.7401 12.2976 19.1505 12.9444C18.8086 13.3194 18.2275 13.3462 17.8525 13.0044C17.4776 12.6626 17.4507 12.0815 17.7925 11.7065C18.7068 10.7036 21.1805 8.90107 25.1008 9.66691C25.5988 9.76419 25.9236 10.2468 25.8263 10.7448C25.729 11.2428 25.2465 11.5676 24.7485 11.4703Z" fill="url(#paint27_radial_13419_45212)"/>
<path d="M11.5811 7.18494C11.6348 7.05209 11.7027 6.92102 11.7857 6.79321C12.4773 5.72836 13.9187 5.43885 15.0148 6.19646C15.1412 6.28382 15.2599 6.38224 15.3704 6.49146C15.4062 6.4011 15.4406 6.3095 15.4738 6.2169C15.4754 6.2225 15.477 6.22807 15.4786 6.23361C15.2534 6.94284 14.7482 7.70206 14.4676 8.06834C14.3415 7.80645 14.192 7.64872 14.0695 7.56406C13.7266 7.32704 13.3497 7.43743 13.1799 7.69875C13.1733 7.70892 13.1671 7.71921 13.1612 7.72961L11.5811 7.18494Z" fill="url(#paint28_radial_13419_45212)"/>
<path d="M11.5811 7.18494C11.6348 7.05209 11.7027 6.92102 11.7857 6.79321C12.4773 5.72836 13.9187 5.43885 15.0148 6.19646C15.1412 6.28382 15.2599 6.38224 15.3704 6.49146C15.4062 6.4011 15.4406 6.3095 15.4738 6.2169C15.4754 6.2225 15.477 6.22807 15.4786 6.23361C15.2534 6.94284 14.7482 7.70206 14.4676 8.06834C14.3415 7.80645 14.192 7.64872 14.0695 7.56406C13.7266 7.32704 13.3497 7.43743 13.1799 7.69875C13.1733 7.70892 13.1671 7.71921 13.1612 7.72961L11.5811 7.18494Z" fill="url(#paint29_radial_13419_45212)"/>
<path fill-rule="evenodd" clip-rule="evenodd" d="M12.4442 19.7805C11.8455 19.4494 11.2214 19.0486 10.5938 18.5857C11.5443 17.4075 13.2423 15.8621 15.4563 14.7461C19.094 12.9124 23.105 13.9077 24.7394 14.5556C25.3009 14.7782 25.5757 15.4139 25.3531 15.9754C25.1304 16.537 24.4948 16.8117 23.9332 16.5891C22.5324 16.0338 19.2567 15.2801 16.4409 16.6995C14.5837 17.6357 13.2028 18.8943 12.4442 19.7805Z" fill="url(#paint30_linear_13419_45212)"/>
<path fill-rule="evenodd" clip-rule="evenodd" d="M12.4442 19.7805C11.8455 19.4494 11.2214 19.0486 10.5938 18.5857C11.5443 17.4075 13.2423 15.8621 15.4563 14.7461C19.094 12.9124 23.105 13.9077 24.7394 14.5556C25.3009 14.7782 25.5757 15.4139 25.3531 15.9754C25.1304 16.537 24.4948 16.8117 23.9332 16.5891C22.5324 16.0338 19.2567 15.2801 16.4409 16.6995C14.5837 17.6357 13.2028 18.8943 12.4442 19.7805Z" fill="url(#paint31_radial_13419_45212)"/>
<path fill-rule="evenodd" clip-rule="evenodd" d="M12.4442 19.7805C11.8455 19.4494 11.2214 19.0486 10.5938 18.5857C11.5443 17.4075 13.2423 15.8621 15.4563 14.7461C19.094 12.9124 23.105 13.9077 24.7394 14.5556C25.3009 14.7782 25.5757 15.4139 25.3531 15.9754C25.1304 16.537 24.4948 16.8117 23.9332 16.5891C22.5324 16.0338 19.2567 15.2801 16.4409 16.6995C14.5837 17.6357 13.2028 18.8943 12.4442 19.7805Z" fill="url(#paint32_radial_13419_45212)"/>
<path fill-rule="evenodd" clip-rule="evenodd" d="M12.4442 19.7805C11.8455 19.4494 11.2214 19.0486 10.5938 18.5857C11.5443 17.4075 13.2423 15.8621 15.4563 14.7461C19.094 12.9124 23.105 13.9077 24.7394 14.5556C25.3009 14.7782 25.5757 15.4139 25.3531 15.9754C25.1304 16.537 24.4948 16.8117 23.9332 16.5891C22.5324 16.0338 19.2567 15.2801 16.4409 16.6995C14.5837 17.6357 13.2028 18.8943 12.4442 19.7805Z" fill="url(#paint33_radial_13419_45212)"/>
<path fill-rule="evenodd" clip-rule="evenodd" d="M9.25134 5.82189C8.95763 5.29404 8.29162 5.10425 7.76377 5.39797C7.23593 5.69169 7.04613 6.3577 7.33985 6.88554C7.78339 7.68262 8.32951 8.80787 8.39941 10.2568C8.46032 11.5195 8.16298 13.1209 6.9541 15.042C7.37238 15.5955 7.87748 16.1692 8.45526 16.739C10.1597 14.2597 10.6754 12.039 10.5844 10.1514C10.4902 8.19937 9.75117 6.72012 9.25134 5.82189Z" fill="url(#paint34_radial_13419_45212)"/>
<path fill-rule="evenodd" clip-rule="evenodd" d="M9.25134 5.82189C8.95763 5.29404 8.29162 5.10425 7.76377 5.39797C7.23593 5.69169 7.04613 6.3577 7.33985 6.88554C7.78339 7.68262 8.32951 8.80787 8.39941 10.2568C8.46032 11.5195 8.16298 13.1209 6.9541 15.042C7.37238 15.5955 7.87748 16.1692 8.45526 16.739C10.1597 14.2597 10.6754 12.039 10.5844 10.1514C10.4902 8.19937 9.75117 6.72012 9.25134 5.82189Z" fill="url(#paint35_radial_13419_45212)"/>
<path d="M16.2942 8.37256C16.4255 9.06907 16.4289 9.89087 16.2847 10.8253C16.2147 11.279 15.7901 11.59 15.3364 11.52C14.8827 11.45 14.5717 11.0254 14.6417 10.5717C14.6739 10.3629 14.6968 10.1674 14.7115 9.98442C15.5707 9.44496 16.1379 8.72718 16.2942 8.37256Z" fill="url(#paint36_radial_13419_45212)"/>
<defs>
<linearGradient id="paint0_linear_13419_45212" x1="4.02656" y1="17.4865" x2="11.0813" y2="23.6115" gradientUnits="userSpaceOnUse">
<stop stop-color="#B3843C"/>
<stop offset="1" stop-color="#F17A61"/>
</linearGradient>
<linearGradient id="paint1_linear_13419_45212" x1="3.24701" y1="18.4344" x2="5.31172" y2="18.8537" gradientUnits="userSpaceOnUse">
<stop stop-color="#B1853B"/>
<stop offset="1" stop-color="#B1853B" stop-opacity="0"/>
</linearGradient>
<linearGradient id="paint2_linear_13419_45212" x1="17.6015" y1="20.8498" x2="14.1164" y2="21.424" gradientUnits="userSpaceOnUse">
<stop stop-color="#F9C26C"/>
<stop offset="1" stop-color="#F9C26C" stop-opacity="0"/>
</linearGradient>
<linearGradient id="paint3_linear_13419_45212" x1="10.0932" y1="10.842" x2="7.85469" y2="14.6428" gradientUnits="userSpaceOnUse">
<stop stop-color="#E6BF69"/>
<stop offset="1" stop-color="#E6BF69" stop-opacity="0"/>
</linearGradient>
<radialGradient id="paint4_radial_13419_45212" cx="0" cy="0" r="1" gradientUnits="userSpaceOnUse" gradientTransform="translate(11.3603 15.6681) rotate(-49.3383) scale(3.80916 8.92677)">
<stop stop-color="#F5BD55" stop-opacity="0"/>
<stop offset="0.836376" stop-color="#FCCB57"/>
<stop offset="1" stop-color="#FCCB57" stop-opacity="0"/>
</radialGradient>
<linearGradient id="paint5_linear_13419_45212" x1="4.8371" y1="15.6318" x2="19.257" y2="16.3366" gradientUnits="userSpaceOnUse">
<stop stop-color="#F3AB2C"/>
<stop offset="1" stop-color="#B57F1E"/>
</linearGradient>
<radialGradient id="paint6_radial_13419_45212" cx="0" cy="0" r="1" gradientUnits="userSpaceOnUse" gradientTransform="translate(7.73 17.956) rotate(-109.125) scale(5.66781 1.58749)">
<stop offset="0.423414" stop-color="#CA851E"/>
<stop offset="1" stop-color="#CA851E" stop-opacity="0"/>
</radialGradient>
<radialGradient id="paint7_radial_13419_45212" cx="0" cy="0" r="1" gradientUnits="userSpaceOnUse" gradientTransform="translate(13.6641 18.0357) rotate(-73.0972) scale(5.69585 3.33554)">
<stop stop-color="#BC7F28"/>
<stop offset="1" stop-color="#BC7F28" stop-opacity="0"/>
</radialGradient>
<radialGradient id="paint8_radial_13419_45212" cx="0" cy="0" r="1" gradientUnits="userSpaceOnUse" gradientTransform="translate(13.8848 13.7129) rotate(138.668) scale(1.51122)">
<stop stop-color="#5AC0FF"/>
<stop offset="1" stop-color="#3279B6"/>
</radialGradient>
<radialGradient id="paint9_radial_13419_45212" cx="0" cy="0" r="1" gradientUnits="userSpaceOnUse" gradientTransform="translate(13.627 13.855) rotate(160.051) scale(1.51759 1.66347)">
<stop offset="0.534713" stop-color="#3A619E" stop-opacity="0"/>
<stop offset="1" stop-color="#3A619E"/>
</radialGradient>
<radialGradient id="paint10_radial_13419_45212" cx="0" cy="0" r="1" gradientUnits="userSpaceOnUse" gradientTransform="translate(22.6705 19.5981) rotate(134.569) scale(1.73034)">
<stop stop-color="#FDD46C"/>
<stop offset="1" stop-color="#F09C53"/>
</radialGradient>
<radialGradient id="paint11_radial_13419_45212" cx="0" cy="0" r="1" gradientUnits="userSpaceOnUse" gradientTransform="translate(22.2566 19.5061) rotate(100.827) scale(1.71397)">
<stop offset="0.792052" stop-color="#E76260" stop-opacity="0"/>
<stop offset="0.964251" stop-color="#E76260"/>
</radialGradient>
<radialGradient id="paint12_radial_13419_45212" cx="0" cy="0" r="1" gradientUnits="userSpaceOnUse" gradientTransform="translate(22.5628 20.2167) rotate(-147.558) scale(1.73575 2.04408)">
<stop offset="0.482355" stop-color="#AA885A" stop-opacity="0"/>
<stop offset="0.90682" stop-color="#AA885A"/>
</radialGradient>
<radialGradient id="paint13_radial_13419_45212" cx="0" cy="0" r="1" gradientUnits="userSpaceOnUse" gradientTransform="translate(21.9326 5.72903) rotate(132.387) scale(1.8026)">
<stop stop-color="#FF46AA"/>
<stop offset="1" stop-color="#E3189D"/>
</radialGradient>
<radialGradient id="paint14_radial_13419_45212" cx="0" cy="0" r="1" gradientUnits="userSpaceOnUse" gradientTransform="translate(21.623 6.33008) rotate(-173.29) scale(1.63817 2.19239)">
<stop offset="0.522105" stop-color="#B63173" stop-opacity="0"/>
<stop offset="1" stop-color="#B63173"/>
</radialGradient>
<radialGradient id="paint15_radial_13419_45212" cx="0" cy="0" r="1" gradientUnits="userSpaceOnUse" gradientTransform="translate(9.76499 2.5249) rotate(139.574) scale(1.61103)">
<stop stop-color="#FFF46F"/>
<stop offset="1" stop-color="#EFB93C"/>
</radialGradient>
<radialGradient id="paint16_radial_13419_45212" cx="0" cy="0" r="1" gradientUnits="userSpaceOnUse" gradientTransform="translate(9.53455 2.77582) rotate(-178.519) scale(1.67531 1.5951)">
<stop offset="0.558644" stop-color="#AA904B" stop-opacity="0"/>
<stop offset="0.943632" stop-color="#AA904B"/>
</radialGradient>
<radialGradient id="paint17_radial_13419_45212" cx="0" cy="0" r="1" gradientUnits="userSpaceOnUse" gradientTransform="translate(9.34546 2.35156) rotate(102.339) scale(1.79138)">
<stop offset="0.771901" stop-color="#C47072" stop-opacity="0"/>
<stop offset="1" stop-color="#C47072"/>
</radialGradient>
<radialGradient id="paint18_radial_13419_45212" cx="0" cy="0" r="1" gradientUnits="userSpaceOnUse" gradientTransform="translate(5.39939 6.68606) rotate(132.387) scale(1.8026)">
<stop stop-color="#FF46AA"/>
<stop offset="1" stop-color="#E3189D"/>
</radialGradient>
<radialGradient id="paint19_radial_13419_45212" cx="0" cy="0" r="1" gradientUnits="userSpaceOnUse" gradientTransform="translate(5.08984 7.28711) rotate(-173.29) scale(1.63817 2.19239)">
<stop offset="0.522105" stop-color="#B63173" stop-opacity="0"/>
<stop offset="1" stop-color="#B63173"/>
</radialGradient>
<linearGradient id="paint20_linear_13419_45212" x1="17.0127" y1="1.82129" x2="13.0911" y2="11.2202" gradientUnits="userSpaceOnUse">
<stop stop-color="#20B2EE"/>
<stop offset="1" stop-color="#2689DA"/>
</linearGradient>
<radialGradient id="paint21_radial_13419_45212" cx="0" cy="0" r="1" gradientUnits="userSpaceOnUse" gradientTransform="translate(16.152 4.87452) rotate(128.217) scale(6.79056 4.15363)">
<stop offset="0.80204" stop-color="#4274D2" stop-opacity="0"/>
<stop offset="0.950917" stop-color="#4274D2"/>
</radialGradient>
<radialGradient id="paint22_radial_13419_45212" cx="0" cy="0" r="1" gradientUnits="userSpaceOnUse" gradientTransform="translate(15.8123 4.0881) rotate(12.0948) scale(0.978757 3.28576)">
<stop stop-color="#4D8EC0"/>
<stop offset="1" stop-color="#4D8EC0" stop-opacity="0"/>
</radialGradient>
<radialGradient id="paint23_radial_13419_45212" cx="0" cy="0" r="1" gradientUnits="userSpaceOnUse" gradientTransform="translate(17.7537 1.96896) rotate(141.953) scale(1.19791 1.077)">
<stop stop-color="#5ADEFF"/>
<stop offset="1" stop-color="#5ADEFF" stop-opacity="0"/>
</radialGradient>
<radialGradient id="paint24_radial_13419_45212" cx="0" cy="0" r="1" gradientUnits="userSpaceOnUse" gradientTransform="translate(10.1514 21.9431) rotate(133.21) scale(3.71412 8.13182)">
<stop stop-color="#3365FF"/>
<stop offset="1" stop-color="#356DB9"/>
</radialGradient>
<radialGradient id="paint25_radial_13419_45212" cx="0" cy="0" r="1" gradientUnits="userSpaceOnUse" gradientTransform="translate(6.81588 24.5138) rotate(131.598) scale(2.29265 5.79944)">
<stop stop-color="#3365FF"/>
<stop offset="1" stop-color="#356DB9"/>
</radialGradient>
<radialGradient id="paint26_radial_13419_45212" cx="0" cy="0" r="1" gradientUnits="userSpaceOnUse" gradientTransform="translate(24.4256 10.4046) rotate(168.283) scale(3.76997 1.40649)">
<stop stop-color="#FF3BA9"/>
<stop offset="1" stop-color="#F422A7"/>
</radialGradient>
<radialGradient id="paint27_radial_13419_45212" cx="0" cy="0" r="1" gradientUnits="userSpaceOnUse" gradientTransform="translate(21.6981 13.4124) rotate(-127.355) scale(3.8871 6.92762)">
<stop offset="0.752144" stop-color="#B8306F" stop-opacity="0"/>
<stop offset="1" stop-color="#B8306F"/>
</radialGradient>
<radialGradient id="paint28_radial_13419_45212" cx="0" cy="0" r="1" gradientUnits="userSpaceOnUse" gradientTransform="translate(15.2313 8.17358) rotate(-131.325) scale(2.57664 1.92606)">
<stop stop-color="#336BAF"/>
<stop offset="1" stop-color="#336BAF" stop-opacity="0"/>
</radialGradient>
<radialGradient id="paint29_radial_13419_45212" cx="0" cy="0" r="1" gradientUnits="userSpaceOnUse" gradientTransform="translate(15.4786 6.52127) rotate(-127.657) scale(1.62322 0.657657)">
<stop stop-color="#49A4D4"/>
<stop offset="1" stop-color="#49A4D4" stop-opacity="0"/>
</radialGradient>
<linearGradient id="paint30_linear_13419_45212" x1="12.9768" y1="18.9831" x2="24.7098" y2="15.9083" gradientUnits="userSpaceOnUse">
<stop stop-color="#3797E2"/>
<stop offset="1" stop-color="#37AEFF"/>
</linearGradient>
<radialGradient id="paint31_radial_13419_45212" cx="0" cy="0" r="1" gradientUnits="userSpaceOnUse" gradientTransform="translate(17.3168 20.9016) rotate(-129.838) scale(6.98252 17.5031)">
<stop offset="0.622552" stop-color="#526579" stop-opacity="0"/>
<stop offset="0.962126" stop-color="#526579"/>
</radialGradient>
<radialGradient id="paint32_radial_13419_45212" cx="0" cy="0" r="1" gradientUnits="userSpaceOnUse" gradientTransform="translate(21.2384 17.1332) rotate(94.3987) scale(2.3968 4.81879)">
<stop offset="0.396078" stop-color="#6972FF"/>
<stop offset="1" stop-color="#6972FF" stop-opacity="0"/>
</radialGradient>
<radialGradient id="paint33_radial_13419_45212" cx="0" cy="0" r="1" gradientUnits="userSpaceOnUse" gradientTransform="translate(24.7924 15.1188) rotate(-68.8186) scale(0.657151 0.51824)">
<stop stop-color="#55BFFF"/>
<stop offset="1" stop-color="#55BFFF" stop-opacity="0"/>
</radialGradient>
<radialGradient id="paint34_radial_13419_45212" cx="0" cy="0" r="1" gradientUnits="userSpaceOnUse" gradientTransform="translate(9.8217 5.63193) rotate(99.4229) scale(6.39786 2.39689)">
<stop stop-color="#FF3AAA"/>
<stop offset="1" stop-color="#FD2F89"/>
</radialGradient>
<radialGradient id="paint35_radial_13419_45212" cx="0" cy="0" r="1" gradientUnits="userSpaceOnUse" gradientTransform="translate(6.48134 12.2293) rotate(31.1757) scale(4.2074 13.204)">
<stop offset="0.803698" stop-color="#DB2C6E" stop-opacity="0"/>
<stop offset="1" stop-color="#DB2C6E"/>
</radialGradient>
<radialGradient id="paint36_radial_13419_45212" cx="0" cy="0" r="1" gradientUnits="userSpaceOnUse" gradientTransform="translate(15.9461 9.95121) rotate(98.0559) scale(3.09521 1.72262)">
<stop stop-color="#4AB5F8"/>
<stop offset="1" stop-color="#4AB5F8" stop-opacity="0"/>
</radialGradient>
</defs>
</svg>
