<svg width="24" height="25" viewBox="0 0 24 25" fill="none" xmlns="http://www.w3.org/2000/svg">
<g id="Facebook">
<path id="facebook" d="M22 12.2695C22 6.74668 17.5229 2.26953 12 2.26953C6.47715 2.26953 2 6.74668 2 12.2695C2 17.2608 5.65686 21.3979 10.4375 22.148V15.1602H7.89844V12.2695H10.4375V10.0664C10.4375 7.56016 11.9304 6.17578 14.2146 6.17578C15.3087 6.17578 16.4531 6.37109 16.4531 6.37109V8.83203H15.1921C13.9499 8.83203 13.5625 9.60287 13.5625 10.3937V12.2695H16.3359L15.8926 15.1602H13.5625V22.148C18.3431 21.3979 22 17.2608 22 12.2695Z" fill="#1877F2"/>
<path id="facebook_2" d="M16.3359 12.2695H13.5625V10.3937C13.5625 9.60287 13.9499 8.83203 15.1921 8.83203H16.4531V6.37109C16.4531 6.37109 15.3087 6.17578 14.2146 6.17578C11.9304 6.17578 10.4375 7.56016 10.4375 10.0664V12.2695H7.89844V15.1602H10.4375V22.148C10.9466 22.2279 11.4684 22.2695 12 22.2695C12.5316 22.2695 13.0534 22.2279 13.5625 22.148V15.1602H15.8926L16.3359 12.2695Z" fill="white"/>
</g>
</svg>
