<svg width="24" height="25" viewBox="0 0 24 25" fill="none" xmlns="http://www.w3.org/2000/svg">
<g id="Youtube">
<path id="Shape" d="M22.0609 6.96694C21.8199 6.04516 21.1076 5.31935 20.2043 5.07258C18.5673 4.625 12 4.625 12 4.625C12 4.625 5.43273 4.625 3.79568 5.07258C2.89244 5.31935 2.18011 6.04516 1.93909 6.96694C1.5 8.63871 1.5 12.125 1.5 12.125C1.5 12.125 1.5 15.6113 1.93909 17.2831C2.18011 18.2048 2.89244 18.9306 3.79568 19.1774C5.43273 19.625 12 19.625 12 19.625C12 19.625 18.5673 19.625 20.2043 19.1774C21.1076 18.9306 21.8199 18.2048 22.0609 17.2831C22.5 15.6113 22.5 12.125 22.5 12.125C22.5 12.125 22.5 8.63871 22.0609 6.96694ZM9.85227 15.2907V8.95927L15.3409 12.125L9.85227 15.2907Z" fill="#FF0000"/>
</g>
</svg>
