<svg width="29" height="28" viewBox="0 0 29 28" fill="none" xmlns="http://www.w3.org/2000/svg">
<path d="M13.1781 9.57214C13.5358 9.57254 13.9042 9.57294 14.2835 9.57306C14.6628 9.57294 15.0311 9.57254 15.3889 9.57214C24.2991 9.56241 26.6093 9.55988 26.4788 14.1231C26.286 20.8645 22.5686 26.1297 14.3245 26.2938L14.2835 26.2938L14.2425 26.2938C5.99832 26.1297 2.28092 20.8645 2.08816 14.1231C1.95768 9.55988 4.26786 9.56241 13.1781 9.57214Z" fill="url(#paint0_radial_13419_45216)"/>
<path d="M13.1781 9.57214C13.5358 9.57254 13.9042 9.57294 14.2835 9.57306C14.6628 9.57294 15.0311 9.57254 15.3889 9.57214C24.2991 9.56241 26.6093 9.55988 26.4788 14.1231C26.286 20.8645 22.5686 26.1297 14.3245 26.2938L14.2835 26.2938L14.2425 26.2938C5.99832 26.1297 2.28092 20.8645 2.08816 14.1231C1.95768 9.55988 4.26786 9.56241 13.1781 9.57214Z" fill="url(#paint1_radial_13419_45216)"/>
<path d="M13.1781 9.57214C13.5358 9.57254 13.9042 9.57294 14.2835 9.57306C14.6628 9.57294 15.0311 9.57254 15.3889 9.57214C24.2991 9.56241 26.6093 9.55988 26.4788 14.1231C26.286 20.8645 22.5686 26.1297 14.3245 26.2938L14.2835 26.2938L14.2425 26.2938C5.99832 26.1297 2.28092 20.8645 2.08816 14.1231C1.95768 9.55988 4.26786 9.56241 13.1781 9.57214Z" fill="url(#paint2_radial_13419_45216)"/>
<path d="M13.1781 9.57214C13.5358 9.57254 13.9042 9.57294 14.2835 9.57306C14.6628 9.57294 15.0311 9.57254 15.3889 9.57214C24.2991 9.56241 26.6093 9.55988 26.4788 14.1231C26.286 20.8645 22.5686 26.1297 14.3245 26.2938L14.2835 26.2938L14.2425 26.2938C5.99832 26.1297 2.28092 20.8645 2.08816 14.1231C1.95768 9.55988 4.26786 9.56241 13.1781 9.57214Z" fill="url(#paint3_radial_13419_45216)"/>
<path d="M13.1781 9.57214C13.5358 9.57254 13.9042 9.57294 14.2835 9.57306C14.6628 9.57294 15.0311 9.57254 15.3889 9.57214C24.2991 9.56241 26.6093 9.55988 26.4788 14.1231C26.286 20.8645 22.5686 26.1297 14.3245 26.2938L14.2835 26.2938L14.2425 26.2938C5.99832 26.1297 2.28092 20.8645 2.08816 14.1231C1.95768 9.55988 4.26786 9.56241 13.1781 9.57214Z" fill="url(#paint4_radial_13419_45216)"/>
<path d="M13.1781 9.57214C13.5358 9.57254 13.9042 9.57294 14.2835 9.57306C14.6628 9.57294 15.0311 9.57254 15.3889 9.57214C24.2991 9.56241 26.6093 9.55988 26.4788 14.1231C26.286 20.8645 22.5686 26.1297 14.3245 26.2938L14.2835 26.2938L14.2425 26.2938C5.99832 26.1297 2.28092 20.8645 2.08816 14.1231C1.95768 9.55988 4.26786 9.56241 13.1781 9.57214Z" fill="url(#paint5_radial_13419_45216)"/>
<path d="M13.1781 9.57214C13.5358 9.57254 13.9042 9.57294 14.2835 9.57306C14.6628 9.57294 15.0311 9.57254 15.3889 9.57214C24.2991 9.56241 26.6093 9.55988 26.4788 14.1231C26.286 20.8645 22.5686 26.1297 14.3245 26.2938L14.2835 26.2938L14.2425 26.2938C5.99832 26.1297 2.28092 20.8645 2.08816 14.1231C1.95768 9.55988 4.26786 9.56241 13.1781 9.57214Z" fill="url(#paint6_radial_13419_45216)"/>
<path d="M13.1781 9.57214C13.5358 9.57254 13.9042 9.57294 14.2835 9.57306C14.6628 9.57294 15.0311 9.57254 15.3889 9.57214C24.2991 9.56241 26.6093 9.55988 26.4788 14.1231C26.286 20.8645 22.5686 26.1297 14.3245 26.2938L14.2835 26.2938L14.2425 26.2938C5.99832 26.1297 2.28092 20.8645 2.08816 14.1231C1.95768 9.55988 4.26786 9.56241 13.1781 9.57214Z" fill="url(#paint7_radial_13419_45216)"/>
<path d="M13.1781 9.57214C13.5358 9.57254 13.9042 9.57294 14.2835 9.57306C14.6628 9.57294 15.0311 9.57254 15.3889 9.57214C24.2991 9.56241 26.6093 9.55988 26.4788 14.1231C26.286 20.8645 22.5686 26.1297 14.3245 26.2938L14.2835 26.2938L14.2425 26.2938C5.99832 26.1297 2.28092 20.8645 2.08816 14.1231C1.95768 9.55988 4.26786 9.56241 13.1781 9.57214Z" fill="url(#paint8_radial_13419_45216)"/>
<path d="M13.1781 9.57214C13.5358 9.57254 13.9042 9.57294 14.2835 9.57306C14.6628 9.57294 15.0311 9.57254 15.3889 9.57214C24.2991 9.56241 26.6093 9.55988 26.4788 14.1231C26.286 20.8645 22.5686 26.1297 14.3245 26.2938L14.2835 26.2938L14.2425 26.2938C5.99832 26.1297 2.28092 20.8645 2.08816 14.1231C1.95768 9.55988 4.26786 9.56241 13.1781 9.57214Z" fill="url(#paint9_radial_13419_45216)"/>
<path d="M22.966 11.4473C22.966 12.4185 19.5622 13.1973 14.251 13.1973C8.93973 13.1973 5.50098 12.4098 5.50098 11.4473C5.50098 10.4848 8.93098 9.69727 14.251 9.69727C19.571 9.69727 22.966 10.4848 22.966 11.4473Z" fill="url(#paint10_radial_13419_45216)"/>
<path d="M22.966 11.4473C22.966 12.4185 19.5622 13.1973 14.251 13.1973C8.93973 13.1973 5.50098 12.4098 5.50098 11.4473C5.50098 10.4848 8.93098 9.69727 14.251 9.69727C19.571 9.69727 22.966 10.4848 22.966 11.4473Z" fill="url(#paint11_radial_13419_45216)" fill-opacity="0.2"/>
<path d="M14.2081 25.3948C13.0181 25.3948 12.0469 24.4235 12.0469 23.2335C12.0469 22.0435 13.0181 21.0723 14.2081 21.0723C15.3981 21.0723 16.3694 22.0435 16.3694 23.2335C16.3694 24.4235 15.3981 25.3948 14.2081 25.3948Z" fill="url(#paint12_linear_13419_45216)"/>
<path d="M17.9133 7.65434C17.1318 8.81159 15.8081 9.5725 14.3066 9.5725C12.8052 9.5725 11.4815 8.81159 10.7 7.65434C10.0635 8.31369 9.17047 8.72375 8.18164 8.72375C6.24864 8.72375 4.68164 7.15675 4.68164 5.22375C4.68164 3.29075 6.24864 1.72375 8.18164 1.72375C8.78294 1.72375 9.34882 1.87538 9.84314 2.14249C10.3326 2.40698 10.9938 2.35231 11.4085 1.9814C12.1778 1.29334 13.1933 0.875 14.3066 0.875C15.4199 0.875 16.4355 1.29334 17.2048 1.9814C17.6194 2.35231 18.2807 2.40698 18.7701 2.14249C19.2645 1.87538 19.8303 1.72375 20.4316 1.72375C22.3646 1.72375 23.9316 3.29075 23.9316 5.22375C23.9316 7.15675 22.3646 8.72375 20.4316 8.72375C19.4428 8.72375 18.5498 8.31369 17.9133 7.65434Z" fill="url(#paint13_radial_13419_45216)"/>
<path d="M17.9133 7.65434C17.1318 8.81159 15.8081 9.5725 14.3066 9.5725C12.8052 9.5725 11.4815 8.81159 10.7 7.65434C10.0635 8.31369 9.17047 8.72375 8.18164 8.72375C6.24864 8.72375 4.68164 7.15675 4.68164 5.22375C4.68164 3.29075 6.24864 1.72375 8.18164 1.72375C8.78294 1.72375 9.34882 1.87538 9.84314 2.14249C10.3326 2.40698 10.9938 2.35231 11.4085 1.9814C12.1778 1.29334 13.1933 0.875 14.3066 0.875C15.4199 0.875 16.4355 1.29334 17.2048 1.9814C17.6194 2.35231 18.2807 2.40698 18.7701 2.14249C19.2645 1.87538 19.8303 1.72375 20.4316 1.72375C22.3646 1.72375 23.9316 3.29075 23.9316 5.22375C23.9316 7.15675 22.3646 8.72375 20.4316 8.72375C19.4428 8.72375 18.5498 8.31369 17.9133 7.65434Z" fill="url(#paint14_radial_13419_45216)"/>
<path d="M17.9133 7.65434C17.1318 8.81159 15.8081 9.5725 14.3066 9.5725C12.8052 9.5725 11.4815 8.81159 10.7 7.65434C10.0635 8.31369 9.17047 8.72375 8.18164 8.72375C6.24864 8.72375 4.68164 7.15675 4.68164 5.22375C4.68164 3.29075 6.24864 1.72375 8.18164 1.72375C8.78294 1.72375 9.34882 1.87538 9.84314 2.14249C10.3326 2.40698 10.9938 2.35231 11.4085 1.9814C12.1778 1.29334 13.1933 0.875 14.3066 0.875C15.4199 0.875 16.4355 1.29334 17.2048 1.9814C17.6194 2.35231 18.2807 2.40698 18.7701 2.14249C19.2645 1.87538 19.8303 1.72375 20.4316 1.72375C22.3646 1.72375 23.9316 3.29075 23.9316 5.22375C23.9316 7.15675 22.3646 8.72375 20.4316 8.72375C19.4428 8.72375 18.5498 8.31369 17.9133 7.65434Z" fill="url(#paint15_radial_13419_45216)" style="mix-blend-mode:multiply"/>
<path d="M17.9133 7.65434C17.1318 8.81159 15.8081 9.5725 14.3066 9.5725C12.8052 9.5725 11.4815 8.81159 10.7 7.65434C10.0635 8.31369 9.17047 8.72375 8.18164 8.72375C6.24864 8.72375 4.68164 7.15675 4.68164 5.22375C4.68164 3.29075 6.24864 1.72375 8.18164 1.72375C8.78294 1.72375 9.34882 1.87538 9.84314 2.14249C10.3326 2.40698 10.9938 2.35231 11.4085 1.9814C12.1778 1.29334 13.1933 0.875 14.3066 0.875C15.4199 0.875 16.4355 1.29334 17.2048 1.9814C17.6194 2.35231 18.2807 2.40698 18.7701 2.14249C19.2645 1.87538 19.8303 1.72375 20.4316 1.72375C22.3646 1.72375 23.9316 3.29075 23.9316 5.22375C23.9316 7.15675 22.3646 8.72375 20.4316 8.72375C19.4428 8.72375 18.5498 8.31369 17.9133 7.65434Z" fill="url(#paint16_radial_13419_45216)"/>
<path d="M17.9133 7.65434C17.1318 8.81159 15.8081 9.5725 14.3066 9.5725C12.8052 9.5725 11.4815 8.81159 10.7 7.65434C10.0635 8.31369 9.17047 8.72375 8.18164 8.72375C6.24864 8.72375 4.68164 7.15675 4.68164 5.22375C4.68164 3.29075 6.24864 1.72375 8.18164 1.72375C8.78294 1.72375 9.34882 1.87538 9.84314 2.14249C10.3326 2.40698 10.9938 2.35231 11.4085 1.9814C12.1778 1.29334 13.1933 0.875 14.3066 0.875C15.4199 0.875 16.4355 1.29334 17.2048 1.9814C17.6194 2.35231 18.2807 2.40698 18.7701 2.14249C19.2645 1.87538 19.8303 1.72375 20.4316 1.72375C22.3646 1.72375 23.9316 3.29075 23.9316 5.22375C23.9316 7.15675 22.3646 8.72375 20.4316 8.72375C19.4428 8.72375 18.5498 8.31369 17.9133 7.65434Z" fill="url(#paint17_radial_13419_45216)" style="mix-blend-mode:multiply"/>
<path d="M17.9133 7.65434C17.1318 8.81159 15.8081 9.5725 14.3066 9.5725C12.8052 9.5725 11.4815 8.81159 10.7 7.65434C10.0635 8.31369 9.17047 8.72375 8.18164 8.72375C6.24864 8.72375 4.68164 7.15675 4.68164 5.22375C4.68164 3.29075 6.24864 1.72375 8.18164 1.72375C8.78294 1.72375 9.34882 1.87538 9.84314 2.14249C10.3326 2.40698 10.9938 2.35231 11.4085 1.9814C12.1778 1.29334 13.1933 0.875 14.3066 0.875C15.4199 0.875 16.4355 1.29334 17.2048 1.9814C17.6194 2.35231 18.2807 2.40698 18.7701 2.14249C19.2645 1.87538 19.8303 1.72375 20.4316 1.72375C22.3646 1.72375 23.9316 3.29075 23.9316 5.22375C23.9316 7.15675 22.3646 8.72375 20.4316 8.72375C19.4428 8.72375 18.5498 8.31369 17.9133 7.65434Z" fill="url(#paint18_radial_13419_45216)"/>
<path d="M17.9133 7.65434C17.1318 8.81159 15.8081 9.5725 14.3066 9.5725C12.8052 9.5725 11.4815 8.81159 10.7 7.65434C10.0635 8.31369 9.17047 8.72375 8.18164 8.72375C6.24864 8.72375 4.68164 7.15675 4.68164 5.22375C4.68164 3.29075 6.24864 1.72375 8.18164 1.72375C8.78294 1.72375 9.34882 1.87538 9.84314 2.14249C10.3326 2.40698 10.9938 2.35231 11.4085 1.9814C12.1778 1.29334 13.1933 0.875 14.3066 0.875C15.4199 0.875 16.4355 1.29334 17.2048 1.9814C17.6194 2.35231 18.2807 2.40698 18.7701 2.14249C19.2645 1.87538 19.8303 1.72375 20.4316 1.72375C22.3646 1.72375 23.9316 3.29075 23.9316 5.22375C23.9316 7.15675 22.3646 8.72375 20.4316 8.72375C19.4428 8.72375 18.5498 8.31369 17.9133 7.65434Z" fill="url(#paint19_radial_13419_45216)"/>
<path d="M17.9133 7.65434C17.1318 8.81159 15.8081 9.5725 14.3066 9.5725C12.8052 9.5725 11.4815 8.81159 10.7 7.65434C10.0635 8.31369 9.17047 8.72375 8.18164 8.72375C6.24864 8.72375 4.68164 7.15675 4.68164 5.22375C4.68164 3.29075 6.24864 1.72375 8.18164 1.72375C8.78294 1.72375 9.34882 1.87538 9.84314 2.14249C10.3326 2.40698 10.9938 2.35231 11.4085 1.9814C12.1778 1.29334 13.1933 0.875 14.3066 0.875C15.4199 0.875 16.4355 1.29334 17.2048 1.9814C17.6194 2.35231 18.2807 2.40698 18.7701 2.14249C19.2645 1.87538 19.8303 1.72375 20.4316 1.72375C22.3646 1.72375 23.9316 3.29075 23.9316 5.22375C23.9316 7.15675 22.3646 8.72375 20.4316 8.72375C19.4428 8.72375 18.5498 8.31369 17.9133 7.65434Z" fill="url(#paint20_radial_13419_45216)"/>
<path d="M17.9133 7.65434C17.1318 8.81159 15.8081 9.5725 14.3066 9.5725C12.8052 9.5725 11.4815 8.81159 10.7 7.65434C10.0635 8.31369 9.17047 8.72375 8.18164 8.72375C6.24864 8.72375 4.68164 7.15675 4.68164 5.22375C4.68164 3.29075 6.24864 1.72375 8.18164 1.72375C8.78294 1.72375 9.34882 1.87538 9.84314 2.14249C10.3326 2.40698 10.9938 2.35231 11.4085 1.9814C12.1778 1.29334 13.1933 0.875 14.3066 0.875C15.4199 0.875 16.4355 1.29334 17.2048 1.9814C17.6194 2.35231 18.2807 2.40698 18.7701 2.14249C19.2645 1.87538 19.8303 1.72375 20.4316 1.72375C22.3646 1.72375 23.9316 3.29075 23.9316 5.22375C23.9316 7.15675 22.3646 8.72375 20.4316 8.72375C19.4428 8.72375 18.5498 8.31369 17.9133 7.65434Z" fill="url(#paint21_radial_13419_45216)"/>
<path d="M17.9133 7.65434C17.1318 8.81159 15.8081 9.5725 14.3066 9.5725C12.8052 9.5725 11.4815 8.81159 10.7 7.65434C10.0635 8.31369 9.17047 8.72375 8.18164 8.72375C6.24864 8.72375 4.68164 7.15675 4.68164 5.22375C4.68164 3.29075 6.24864 1.72375 8.18164 1.72375C8.78294 1.72375 9.34882 1.87538 9.84314 2.14249C10.3326 2.40698 10.9938 2.35231 11.4085 1.9814C12.1778 1.29334 13.1933 0.875 14.3066 0.875C15.4199 0.875 16.4355 1.29334 17.2048 1.9814C17.6194 2.35231 18.2807 2.40698 18.7701 2.14249C19.2645 1.87538 19.8303 1.72375 20.4316 1.72375C22.3646 1.72375 23.9316 3.29075 23.9316 5.22375C23.9316 7.15675 22.3646 8.72375 20.4316 8.72375C19.4428 8.72375 18.5498 8.31369 17.9133 7.65434Z" fill="url(#paint22_radial_13419_45216)"/>
<path d="M17.9133 7.65434C17.1318 8.81159 15.8081 9.5725 14.3066 9.5725C12.8052 9.5725 11.4815 8.81159 10.7 7.65434C10.0635 8.31369 9.17047 8.72375 8.18164 8.72375C6.24864 8.72375 4.68164 7.15675 4.68164 5.22375C4.68164 3.29075 6.24864 1.72375 8.18164 1.72375C8.78294 1.72375 9.34882 1.87538 9.84314 2.14249C10.3326 2.40698 10.9938 2.35231 11.4085 1.9814C12.1778 1.29334 13.1933 0.875 14.3066 0.875C15.4199 0.875 16.4355 1.29334 17.2048 1.9814C17.6194 2.35231 18.2807 2.40698 18.7701 2.14249C19.2645 1.87538 19.8303 1.72375 20.4316 1.72375C22.3646 1.72375 23.9316 3.29075 23.9316 5.22375C23.9316 7.15675 22.3646 8.72375 20.4316 8.72375C19.4428 8.72375 18.5498 8.31369 17.9133 7.65434Z" fill="url(#paint23_radial_13419_45216)"/>
<path d="M17.9133 7.65434C17.1318 8.81159 15.8081 9.5725 14.3066 9.5725C12.8052 9.5725 11.4815 8.81159 10.7 7.65434C10.0635 8.31369 9.17047 8.72375 8.18164 8.72375C6.24864 8.72375 4.68164 7.15675 4.68164 5.22375C4.68164 3.29075 6.24864 1.72375 8.18164 1.72375C8.78294 1.72375 9.34882 1.87538 9.84314 2.14249C10.3326 2.40698 10.9938 2.35231 11.4085 1.9814C12.1778 1.29334 13.1933 0.875 14.3066 0.875C15.4199 0.875 16.4355 1.29334 17.2048 1.9814C17.6194 2.35231 18.2807 2.40698 18.7701 2.14249C19.2645 1.87538 19.8303 1.72375 20.4316 1.72375C22.3646 1.72375 23.9316 3.29075 23.9316 5.22375C23.9316 7.15675 22.3646 8.72375 20.4316 8.72375C19.4428 8.72375 18.5498 8.31369 17.9133 7.65434Z" fill="url(#paint24_radial_13419_45216)"/>
<path d="M17.9133 7.65434C17.1318 8.81159 15.8081 9.5725 14.3066 9.5725C12.8052 9.5725 11.4815 8.81159 10.7 7.65434C10.0635 8.31369 9.17047 8.72375 8.18164 8.72375C6.24864 8.72375 4.68164 7.15675 4.68164 5.22375C4.68164 3.29075 6.24864 1.72375 8.18164 1.72375C8.78294 1.72375 9.34882 1.87538 9.84314 2.14249C10.3326 2.40698 10.9938 2.35231 11.4085 1.9814C12.1778 1.29334 13.1933 0.875 14.3066 0.875C15.4199 0.875 16.4355 1.29334 17.2048 1.9814C17.6194 2.35231 18.2807 2.40698 18.7701 2.14249C19.2645 1.87538 19.8303 1.72375 20.4316 1.72375C22.3646 1.72375 23.9316 3.29075 23.9316 5.22375C23.9316 7.15675 22.3646 8.72375 20.4316 8.72375C19.4428 8.72375 18.5498 8.31369 17.9133 7.65434Z" fill="url(#paint25_radial_13419_45216)"/>
<path d="M17.9133 7.65434C17.1318 8.81159 15.8081 9.5725 14.3066 9.5725C12.8052 9.5725 11.4815 8.81159 10.7 7.65434C10.0635 8.31369 9.17047 8.72375 8.18164 8.72375C6.24864 8.72375 4.68164 7.15675 4.68164 5.22375C4.68164 3.29075 6.24864 1.72375 8.18164 1.72375C8.78294 1.72375 9.34882 1.87538 9.84314 2.14249C10.3326 2.40698 10.9938 2.35231 11.4085 1.9814C12.1778 1.29334 13.1933 0.875 14.3066 0.875C15.4199 0.875 16.4355 1.29334 17.2048 1.9814C17.6194 2.35231 18.2807 2.40698 18.7701 2.14249C19.2645 1.87538 19.8303 1.72375 20.4316 1.72375C22.3646 1.72375 23.9316 3.29075 23.9316 5.22375C23.9316 7.15675 22.3646 8.72375 20.4316 8.72375C19.4428 8.72375 18.5498 8.31369 17.9133 7.65434Z" fill="url(#paint26_radial_13419_45216)"/>
<path d="M17.9133 7.65434C17.1318 8.81159 15.8081 9.5725 14.3066 9.5725C12.8052 9.5725 11.4815 8.81159 10.7 7.65434C10.0635 8.31369 9.17047 8.72375 8.18164 8.72375C6.24864 8.72375 4.68164 7.15675 4.68164 5.22375C4.68164 3.29075 6.24864 1.72375 8.18164 1.72375C8.78294 1.72375 9.34882 1.87538 9.84314 2.14249C10.3326 2.40698 10.9938 2.35231 11.4085 1.9814C12.1778 1.29334 13.1933 0.875 14.3066 0.875C15.4199 0.875 16.4355 1.29334 17.2048 1.9814C17.6194 2.35231 18.2807 2.40698 18.7701 2.14249C19.2645 1.87538 19.8303 1.72375 20.4316 1.72375C22.3646 1.72375 23.9316 3.29075 23.9316 5.22375C23.9316 7.15675 22.3646 8.72375 20.4316 8.72375C19.4428 8.72375 18.5498 8.31369 17.9133 7.65434Z" fill="url(#paint27_radial_13419_45216)"/>
<path d="M17.9133 7.65434C17.1318 8.81159 15.8081 9.5725 14.3066 9.5725C12.8052 9.5725 11.4815 8.81159 10.7 7.65434C10.0635 8.31369 9.17047 8.72375 8.18164 8.72375C6.24864 8.72375 4.68164 7.15675 4.68164 5.22375C4.68164 3.29075 6.24864 1.72375 8.18164 1.72375C8.78294 1.72375 9.34882 1.87538 9.84314 2.14249C10.3326 2.40698 10.9938 2.35231 11.4085 1.9814C12.1778 1.29334 13.1933 0.875 14.3066 0.875C15.4199 0.875 16.4355 1.29334 17.2048 1.9814C17.6194 2.35231 18.2807 2.40698 18.7701 2.14249C19.2645 1.87538 19.8303 1.72375 20.4316 1.72375C22.3646 1.72375 23.9316 3.29075 23.9316 5.22375C23.9316 7.15675 22.3646 8.72375 20.4316 8.72375C19.4428 8.72375 18.5498 8.31369 17.9133 7.65434Z" fill="url(#paint28_radial_13419_45216)"/>
<path d="M3.83289 8.77613C4.33064 8.77613 4.73414 8.37263 4.73414 7.87488C4.73414 7.37714 4.33064 6.97363 3.83289 6.97363C3.33514 6.97363 2.93164 7.37714 2.93164 7.87488C2.93164 8.37263 3.33514 8.77613 3.83289 8.77613Z" fill="url(#paint29_radial_13419_45216)"/>
<path d="M23.9404 9.625C24.4237 9.625 24.8154 9.23325 24.8154 8.75C24.8154 8.26675 24.4237 7.875 23.9404 7.875C23.4572 7.875 23.0654 8.26675 23.0654 8.75C23.0654 9.23325 23.4572 9.625 23.9404 9.625Z" fill="url(#paint30_radial_13419_45216)"/>
<path d="M21.3071 6.43111C21.974 6.43111 22.5146 5.8905 22.5146 5.22361C22.5146 4.55673 21.974 4.01611 21.3071 4.01611C20.6402 4.01611 20.0996 4.55673 20.0996 5.22361C20.0996 5.8905 20.6402 6.43111 21.3071 6.43111Z" fill="url(#paint31_radial_13419_45216)"/>
<path d="M5.11961 5.11861C5.78649 5.11861 6.32711 4.578 6.32711 3.91111C6.32711 3.24423 5.78649 2.70361 5.11961 2.70361C4.45273 2.70361 3.91211 3.24423 3.91211 3.91111C3.91211 4.578 4.45273 5.11861 5.11961 5.11861Z" fill="url(#paint32_radial_13419_45216)"/>
<path d="M12.1746 11.731C12.0934 11.5159 11.8765 11.3858 11.6465 11.3858C9.71836 11.3858 8.15527 9.82273 8.15527 7.89457C8.15527 5.96641 9.71836 4.40332 11.6465 4.40332C12.4294 4.40332 13.1522 4.66103 13.7345 5.09624C14.0551 5.33586 14.5229 5.33586 14.8436 5.09624C15.4259 4.66103 16.1486 4.40332 16.9315 4.40332C18.8597 4.40332 20.4228 5.96641 20.4228 7.89457C20.4228 9.82273 18.8597 11.3858 16.9315 11.3858C16.7421 11.3858 16.5657 11.495 16.4949 11.6707C16.279 12.2066 16.2157 12.2636 16.0638 13.1611C15.4883 13.1822 14.8833 13.1932 14.2512 13.1932C13.6618 13.1932 13.0955 13.1835 12.5544 13.165C12.4639 12.5035 12.3808 12.2773 12.1746 11.731Z" fill="url(#paint33_linear_13419_45216)"/>
<path d="M12.1746 11.731C12.0934 11.5159 11.8765 11.3858 11.6465 11.3858C9.71836 11.3858 8.15527 9.82273 8.15527 7.89457C8.15527 5.96641 9.71836 4.40332 11.6465 4.40332C12.4294 4.40332 13.1522 4.66103 13.7345 5.09624C14.0551 5.33586 14.5229 5.33586 14.8436 5.09624C15.4259 4.66103 16.1486 4.40332 16.9315 4.40332C18.8597 4.40332 20.4228 5.96641 20.4228 7.89457C20.4228 9.82273 18.8597 11.3858 16.9315 11.3858C16.7421 11.3858 16.5657 11.495 16.4949 11.6707C16.279 12.2066 16.2157 12.2636 16.0638 13.1611C15.4883 13.1822 14.8833 13.1932 14.2512 13.1932C13.6618 13.1932 13.0955 13.1835 12.5544 13.165C12.4639 12.5035 12.3808 12.2773 12.1746 11.731Z" fill="url(#paint34_radial_13419_45216)"/>
<path d="M12.1746 11.731C12.0934 11.5159 11.8765 11.3858 11.6465 11.3858C9.71836 11.3858 8.15527 9.82273 8.15527 7.89457C8.15527 5.96641 9.71836 4.40332 11.6465 4.40332C12.4294 4.40332 13.1522 4.66103 13.7345 5.09624C14.0551 5.33586 14.5229 5.33586 14.8436 5.09624C15.4259 4.66103 16.1486 4.40332 16.9315 4.40332C18.8597 4.40332 20.4228 5.96641 20.4228 7.89457C20.4228 9.82273 18.8597 11.3858 16.9315 11.3858C16.7421 11.3858 16.5657 11.495 16.4949 11.6707C16.279 12.2066 16.2157 12.2636 16.0638 13.1611C15.4883 13.1822 14.8833 13.1932 14.2512 13.1932C13.6618 13.1932 13.0955 13.1835 12.5544 13.165C12.4639 12.5035 12.3808 12.2773 12.1746 11.731Z" fill="url(#paint35_radial_13419_45216)"/>
<path d="M12.1746 11.731C12.0934 11.5159 11.8765 11.3858 11.6465 11.3858C9.71836 11.3858 8.15527 9.82273 8.15527 7.89457C8.15527 5.96641 9.71836 4.40332 11.6465 4.40332C12.4294 4.40332 13.1522 4.66103 13.7345 5.09624C14.0551 5.33586 14.5229 5.33586 14.8436 5.09624C15.4259 4.66103 16.1486 4.40332 16.9315 4.40332C18.8597 4.40332 20.4228 5.96641 20.4228 7.89457C20.4228 9.82273 18.8597 11.3858 16.9315 11.3858C16.7421 11.3858 16.5657 11.495 16.4949 11.6707C16.279 12.2066 16.2157 12.2636 16.0638 13.1611C15.4883 13.1822 14.8833 13.1932 14.2512 13.1932C13.6618 13.1932 13.0955 13.1835 12.5544 13.165C12.4639 12.5035 12.3808 12.2773 12.1746 11.731Z" fill="url(#paint36_radial_13419_45216)"/>
<path d="M12.1746 11.731C12.0934 11.5159 11.8765 11.3858 11.6465 11.3858C9.71836 11.3858 8.15527 9.82273 8.15527 7.89457C8.15527 5.96641 9.71836 4.40332 11.6465 4.40332C12.4294 4.40332 13.1522 4.66103 13.7345 5.09624C14.0551 5.33586 14.5229 5.33586 14.8436 5.09624C15.4259 4.66103 16.1486 4.40332 16.9315 4.40332C18.8597 4.40332 20.4228 5.96641 20.4228 7.89457C20.4228 9.82273 18.8597 11.3858 16.9315 11.3858C16.7421 11.3858 16.5657 11.495 16.4949 11.6707C16.279 12.2066 16.2157 12.2636 16.0638 13.1611C15.4883 13.1822 14.8833 13.1932 14.2512 13.1932C13.6618 13.1932 13.0955 13.1835 12.5544 13.165C12.4639 12.5035 12.3808 12.2773 12.1746 11.731Z" fill="url(#paint37_radial_13419_45216)"/>
<path d="M12.1746 11.731C12.0934 11.5159 11.8765 11.3858 11.6465 11.3858C9.71836 11.3858 8.15527 9.82273 8.15527 7.89457C8.15527 5.96641 9.71836 4.40332 11.6465 4.40332C12.4294 4.40332 13.1522 4.66103 13.7345 5.09624C14.0551 5.33586 14.5229 5.33586 14.8436 5.09624C15.4259 4.66103 16.1486 4.40332 16.9315 4.40332C18.8597 4.40332 20.4228 5.96641 20.4228 7.89457C20.4228 9.82273 18.8597 11.3858 16.9315 11.3858C16.7421 11.3858 16.5657 11.495 16.4949 11.6707C16.279 12.2066 16.2157 12.2636 16.0638 13.1611C15.4883 13.1822 14.8833 13.1932 14.2512 13.1932C13.6618 13.1932 13.0955 13.1835 12.5544 13.165C12.4639 12.5035 12.3808 12.2773 12.1746 11.731Z" fill="url(#paint38_radial_13419_45216)"/>
<path d="M12.1746 11.731C12.0934 11.5159 11.8765 11.3858 11.6465 11.3858C9.71836 11.3858 8.15527 9.82273 8.15527 7.89457C8.15527 5.96641 9.71836 4.40332 11.6465 4.40332C12.4294 4.40332 13.1522 4.66103 13.7345 5.09624C14.0551 5.33586 14.5229 5.33586 14.8436 5.09624C15.4259 4.66103 16.1486 4.40332 16.9315 4.40332C18.8597 4.40332 20.4228 5.96641 20.4228 7.89457C20.4228 9.82273 18.8597 11.3858 16.9315 11.3858C16.7421 11.3858 16.5657 11.495 16.4949 11.6707C16.279 12.2066 16.2157 12.2636 16.0638 13.1611C15.4883 13.1822 14.8833 13.1932 14.2512 13.1932C13.6618 13.1932 13.0955 13.1835 12.5544 13.165C12.4639 12.5035 12.3808 12.2773 12.1746 11.731Z" fill="url(#paint39_radial_13419_45216)"/>
<path d="M12.1746 11.731C12.0934 11.5159 11.8765 11.3858 11.6465 11.3858C9.71836 11.3858 8.15527 9.82273 8.15527 7.89457C8.15527 5.96641 9.71836 4.40332 11.6465 4.40332C12.4294 4.40332 13.1522 4.66103 13.7345 5.09624C14.0551 5.33586 14.5229 5.33586 14.8436 5.09624C15.4259 4.66103 16.1486 4.40332 16.9315 4.40332C18.8597 4.40332 20.4228 5.96641 20.4228 7.89457C20.4228 9.82273 18.8597 11.3858 16.9315 11.3858C16.7421 11.3858 16.5657 11.495 16.4949 11.6707C16.279 12.2066 16.2157 12.2636 16.0638 13.1611C15.4883 13.1822 14.8833 13.1932 14.2512 13.1932C13.6618 13.1932 13.0955 13.1835 12.5544 13.165C12.4639 12.5035 12.3808 12.2773 12.1746 11.731Z" fill="url(#paint40_radial_13419_45216)"/>
<path d="M12.1746 11.731C12.0934 11.5159 11.8765 11.3858 11.6465 11.3858C9.71836 11.3858 8.15527 9.82273 8.15527 7.89457C8.15527 5.96641 9.71836 4.40332 11.6465 4.40332C12.4294 4.40332 13.1522 4.66103 13.7345 5.09624C14.0551 5.33586 14.5229 5.33586 14.8436 5.09624C15.4259 4.66103 16.1486 4.40332 16.9315 4.40332C18.8597 4.40332 20.4228 5.96641 20.4228 7.89457C20.4228 9.82273 18.8597 11.3858 16.9315 11.3858C16.7421 11.3858 16.5657 11.495 16.4949 11.6707C16.279 12.2066 16.2157 12.2636 16.0638 13.1611C15.4883 13.1822 14.8833 13.1932 14.2512 13.1932C13.6618 13.1932 13.0955 13.1835 12.5544 13.165C12.4639 12.5035 12.3808 12.2773 12.1746 11.731Z" fill="url(#paint41_radial_13419_45216)"/>
<path d="M12.1746 11.731C12.0934 11.5159 11.8765 11.3858 11.6465 11.3858C9.71836 11.3858 8.15527 9.82273 8.15527 7.89457C8.15527 5.96641 9.71836 4.40332 11.6465 4.40332C12.4294 4.40332 13.1522 4.66103 13.7345 5.09624C14.0551 5.33586 14.5229 5.33586 14.8436 5.09624C15.4259 4.66103 16.1486 4.40332 16.9315 4.40332C18.8597 4.40332 20.4228 5.96641 20.4228 7.89457C20.4228 9.82273 18.8597 11.3858 16.9315 11.3858C16.7421 11.3858 16.5657 11.495 16.4949 11.6707C16.279 12.2066 16.2157 12.2636 16.0638 13.1611C15.4883 13.1822 14.8833 13.1932 14.2512 13.1932C13.6618 13.1932 13.0955 13.1835 12.5544 13.165C12.4639 12.5035 12.3808 12.2773 12.1746 11.731Z" fill="url(#paint42_radial_13419_45216)"/>
<path d="M12.1746 11.731C12.0934 11.5159 11.8765 11.3858 11.6465 11.3858C9.71836 11.3858 8.15527 9.82273 8.15527 7.89457C8.15527 5.96641 9.71836 4.40332 11.6465 4.40332C12.4294 4.40332 13.1522 4.66103 13.7345 5.09624C14.0551 5.33586 14.5229 5.33586 14.8436 5.09624C15.4259 4.66103 16.1486 4.40332 16.9315 4.40332C18.8597 4.40332 20.4228 5.96641 20.4228 7.89457C20.4228 9.82273 18.8597 11.3858 16.9315 11.3858C16.7421 11.3858 16.5657 11.495 16.4949 11.6707C16.279 12.2066 16.2157 12.2636 16.0638 13.1611C15.4883 13.1822 14.8833 13.1932 14.2512 13.1932C13.6618 13.1932 13.0955 13.1835 12.5544 13.165C12.4639 12.5035 12.3808 12.2773 12.1746 11.731Z" fill="url(#paint43_radial_13419_45216)"/>
<path d="M12.1746 11.731C12.0934 11.5159 11.8765 11.3858 11.6465 11.3858C9.71836 11.3858 8.15527 9.82273 8.15527 7.89457C8.15527 5.96641 9.71836 4.40332 11.6465 4.40332C12.4294 4.40332 13.1522 4.66103 13.7345 5.09624C14.0551 5.33586 14.5229 5.33586 14.8436 5.09624C15.4259 4.66103 16.1486 4.40332 16.9315 4.40332C18.8597 4.40332 20.4228 5.96641 20.4228 7.89457C20.4228 9.82273 18.8597 11.3858 16.9315 11.3858C16.7421 11.3858 16.5657 11.495 16.4949 11.6707C16.279 12.2066 16.2157 12.2636 16.0638 13.1611C15.4883 13.1822 14.8833 13.1932 14.2512 13.1932C13.6618 13.1932 13.0955 13.1835 12.5544 13.165C12.4639 12.5035 12.3808 12.2773 12.1746 11.731Z" fill="url(#paint44_radial_13419_45216)"/>
<path d="M12.1746 11.731C12.0934 11.5159 11.8765 11.3858 11.6465 11.3858C9.71836 11.3858 8.15527 9.82273 8.15527 7.89457C8.15527 5.96641 9.71836 4.40332 11.6465 4.40332C12.4294 4.40332 13.1522 4.66103 13.7345 5.09624C14.0551 5.33586 14.5229 5.33586 14.8436 5.09624C15.4259 4.66103 16.1486 4.40332 16.9315 4.40332C18.8597 4.40332 20.4228 5.96641 20.4228 7.89457C20.4228 9.82273 18.8597 11.3858 16.9315 11.3858C16.7421 11.3858 16.5657 11.495 16.4949 11.6707C16.279 12.2066 16.2157 12.2636 16.0638 13.1611C15.4883 13.1822 14.8833 13.1932 14.2512 13.1932C13.6618 13.1932 13.0955 13.1835 12.5544 13.165C12.4639 12.5035 12.3808 12.2773 12.1746 11.731Z" fill="url(#paint45_radial_13419_45216)"/>
<path d="M12.1746 11.731C12.0934 11.5159 11.8765 11.3858 11.6465 11.3858C9.71836 11.3858 8.15527 9.82273 8.15527 7.89457C8.15527 5.96641 9.71836 4.40332 11.6465 4.40332C12.4294 4.40332 13.1522 4.66103 13.7345 5.09624C14.0551 5.33586 14.5229 5.33586 14.8436 5.09624C15.4259 4.66103 16.1486 4.40332 16.9315 4.40332C18.8597 4.40332 20.4228 5.96641 20.4228 7.89457C20.4228 9.82273 18.8597 11.3858 16.9315 11.3858C16.7421 11.3858 16.5657 11.495 16.4949 11.6707C16.279 12.2066 16.2157 12.2636 16.0638 13.1611C15.4883 13.1822 14.8833 13.1932 14.2512 13.1932C13.6618 13.1932 13.0955 13.1835 12.5544 13.165C12.4639 12.5035 12.3808 12.2773 12.1746 11.731Z" fill="url(#paint46_radial_13419_45216)"/>
<path d="M9.47664 21.8224C11.6416 21.8224 13.3966 20.0674 13.3966 17.9024C13.3966 15.7375 11.6416 13.9824 9.47664 13.9824C7.31168 13.9824 5.55664 15.7375 5.55664 17.9024C5.55664 20.0674 7.31168 21.8224 9.47664 21.8224Z" fill="white"/>
<path d="M19.1016 21.8224C21.2666 21.8224 23.0216 20.0674 23.0216 17.9024C23.0216 15.7375 21.2666 13.9824 19.1016 13.9824C16.9367 13.9824 15.1816 15.7375 15.1816 17.9024C15.1816 20.0674 16.9367 21.8224 19.1016 21.8224Z" fill="white"/>
<path fill-rule="evenodd" clip-rule="evenodd" d="M10.833 18.8125C11.5579 18.8125 12.1455 18.2249 12.1455 17.5C12.1455 16.7751 11.5579 16.1875 10.833 16.1875C10.1081 16.1875 9.52051 16.7751 9.52051 17.5C9.52051 18.2249 10.1081 18.8125 10.833 18.8125ZM17.833 18.8125C18.5579 18.8125 19.1455 18.2249 19.1455 17.5C19.1455 16.7751 18.5579 16.1875 17.833 16.1875C17.1081 16.1875 16.5205 16.7751 16.5205 17.5C16.5205 18.2249 17.1081 18.8125 17.833 18.8125Z" fill="url(#paint47_linear_13419_45216)"/>
<defs>
<radialGradient id="paint0_radial_13419_45216" cx="0" cy="0" r="1" gradientUnits="userSpaceOnUse" gradientTransform="translate(14.6714 11.911) rotate(90) scale(24.8281 65.241)">
<stop stop-color="#F89C20"/>
<stop offset="0.171806" stop-color="#F8D51D"/>
<stop offset="0.489583" stop-color="#F89C20"/>
<stop offset="1" stop-color="#F5891F"/>
</radialGradient>
<radialGradient id="paint1_radial_13419_45216" cx="0" cy="0" r="1" gradientUnits="userSpaceOnUse" gradientTransform="translate(14.2835 11.911) rotate(91.8025) scale(15.4842 61.4215)">
<stop stop-color="#EB9037" stop-opacity="0"/>
<stop offset="1" stop-color="#EB9037"/>
</radialGradient>
<radialGradient id="paint2_radial_13419_45216" cx="0" cy="0" r="1" gradientUnits="userSpaceOnUse" gradientTransform="translate(1.20801 21.0001) rotate(-4.76364) scale(10.5364 10.4661)">
<stop offset="0.629986" stop-color="#DA7C34"/>
<stop offset="0.971481" stop-color="#D87B30" stop-opacity="0"/>
</radialGradient>
<radialGradient id="paint3_radial_13419_45216" cx="0" cy="0" r="1" gradientUnits="userSpaceOnUse" gradientTransform="translate(14.2835 14.1532) rotate(90) scale(12.1406 17.2734)">
<stop offset="0.823911" stop-color="#FFB56D" stop-opacity="0"/>
<stop offset="1" stop-color="#FF63C4"/>
</radialGradient>
<radialGradient id="paint4_radial_13419_45216" cx="0" cy="0" r="1" gradientUnits="userSpaceOnUse" gradientTransform="translate(18.3809 18.8152) rotate(128.517) scale(3.83734 4.46609)">
<stop offset="0.66893" stop-color="#DD6C5B"/>
<stop offset="0.915648" stop-color="#DC6B5B" stop-opacity="0"/>
</radialGradient>
<radialGradient id="paint5_radial_13419_45216" cx="0" cy="0" r="1" gradientUnits="userSpaceOnUse" gradientTransform="translate(9.07008 18.5462) rotate(93.5918) scale(4.25808 4.22967)">
<stop offset="0.629986" stop-color="#D66A46"/>
<stop offset="0.907486" stop-color="#D66A46" stop-opacity="0.15"/>
<stop offset="0.971481" stop-color="#D66A46" stop-opacity="0"/>
</radialGradient>
<radialGradient id="paint6_radial_13419_45216" cx="0" cy="0" r="1" gradientUnits="userSpaceOnUse" gradientTransform="translate(23.1592 14.0712) rotate(68.4985) scale(0.680118 1.67414)">
<stop stop-color="#FFF500" stop-opacity="0.45"/>
<stop offset="0.260417" stop-color="#FFF500" stop-opacity="0.315355"/>
<stop offset="0.656068" stop-color="#FFF500" stop-opacity="0.125417"/>
<stop offset="1" stop-color="#FFF500" stop-opacity="0"/>
</radialGradient>
<radialGradient id="paint7_radial_13419_45216" cx="0" cy="0" r="1" gradientUnits="userSpaceOnUse" gradientTransform="translate(24.6301 13.4925) rotate(54.314) scale(1.08745 2.67681)">
<stop stop-color="#FFF500" stop-opacity="0.56"/>
<stop offset="0.574598" stop-color="#FFF500" stop-opacity="0.125417"/>
<stop offset="1" stop-color="#FFF500" stop-opacity="0"/>
</radialGradient>
<radialGradient id="paint8_radial_13419_45216" cx="0" cy="0" r="1" gradientUnits="userSpaceOnUse" gradientTransform="translate(14.2835 11.3255) rotate(90) scale(3.23985 12.6435)">
<stop offset="0.773438" stop-color="white" stop-opacity="0.19"/>
<stop offset="1" stop-color="white" stop-opacity="0"/>
</radialGradient>
<radialGradient id="paint9_radial_13419_45216" cx="0" cy="0" r="1" gradientUnits="userSpaceOnUse" gradientTransform="translate(7.45186 9.99808) rotate(92.1765) scale(3.1293 7.70288)">
<stop stop-color="#D6944E"/>
<stop offset="1" stop-color="#D6944E" stop-opacity="0"/>
</radialGradient>
<radialGradient id="paint10_radial_13419_45216" cx="0" cy="0" r="1" gradientUnits="userSpaceOnUse" gradientTransform="translate(14.2325 10.0633) rotate(89.9862) scale(3.98055 12.1225)">
<stop offset="0.222988" stop-color="#F1AF14"/>
<stop offset="0.899786" stop-color="#F7A923"/>
</radialGradient>
<radialGradient id="paint11_radial_13419_45216" cx="0" cy="0" r="1" gradientUnits="userSpaceOnUse" gradientTransform="translate(14.2335 10.0626) rotate(90) scale(3.13471 11.271)">
<stop offset="0.786458" stop-color="#E5961C" stop-opacity="0"/>
<stop offset="1" stop-color="#D18712"/>
</radialGradient>
<linearGradient id="paint12_linear_13419_45216" x1="14.2108" y1="25.3974" x2="14.2108" y2="21.0759" gradientUnits="userSpaceOnUse">
<stop stop-color="#D3037B"/>
<stop offset="1" stop-color="#B7039B"/>
</linearGradient>
<radialGradient id="paint13_radial_13419_45216" cx="0" cy="0" r="1" gradientUnits="userSpaceOnUse" gradientTransform="translate(18.2704 1.20312) rotate(135.922) scale(16.8236 15.7235)">
<stop stop-color="#ACA7A8"/>
<stop offset="0.9832" stop-color="#D1D3D4"/>
</radialGradient>
<radialGradient id="paint14_radial_13419_45216" cx="0" cy="0" r="1" gradientUnits="userSpaceOnUse" gradientTransform="translate(9.40368 7.71965) rotate(-27.8466) scale(11.0833 9.26729)">
<stop stop-color="#DCC4E7"/>
<stop offset="1" stop-color="#DCC4E7" stop-opacity="0"/>
</radialGradient>
<radialGradient id="paint15_radial_13419_45216" cx="0" cy="0" r="1" gradientUnits="userSpaceOnUse" gradientTransform="translate(6.34851 8.50391) rotate(-61.1645) scale(8.33415 7.48705)">
<stop offset="0.140625" stop-color="#C6C6C6"/>
<stop offset="1" stop-color="#C1B4B8" stop-opacity="0"/>
</radialGradient>
<radialGradient id="paint16_radial_13419_45216" cx="0" cy="0" r="1" gradientUnits="userSpaceOnUse" gradientTransform="translate(8.37195 9.24219) rotate(-53.5596) scale(9.48308 7.77906)">
<stop stop-color="#AB7D7B"/>
<stop offset="1" stop-color="#DCC4E7" stop-opacity="0"/>
</radialGradient>
<radialGradient id="paint17_radial_13419_45216" cx="0" cy="0" r="1" gradientUnits="userSpaceOnUse" gradientTransform="translate(-1.95816 -2.907) rotate(32.5759) scale(17.7126 36.8908)">
<stop offset="0.140625" stop-color="#C6C6C6"/>
<stop offset="1" stop-color="#C1B4B8" stop-opacity="0"/>
</radialGradient>
<radialGradient id="paint18_radial_13419_45216" cx="0" cy="0" r="1" gradientUnits="userSpaceOnUse" gradientTransform="translate(19.4226 5.86752) rotate(-56.332) scale(4.25745 3.60149)">
<stop stop-color="#C6C6C6" stop-opacity="0.79"/>
<stop offset="0.48837" stop-color="#C6C6C6" stop-opacity="0.62"/>
<stop offset="1" stop-color="#C6C6C6" stop-opacity="0"/>
</radialGradient>
<radialGradient id="paint19_radial_13419_45216" cx="0" cy="0" r="1" gradientUnits="userSpaceOnUse" gradientTransform="translate(18.7039 4.34243) rotate(-102.043) scale(1.76085 2.4023)">
<stop stop-color="#C6C6C6" stop-opacity="0.79"/>
<stop offset="0.338955" stop-color="#C6C6C6" stop-opacity="0.22"/>
<stop offset="1" stop-color="#C6C6C6" stop-opacity="0"/>
</radialGradient>
<radialGradient id="paint20_radial_13419_45216" cx="0" cy="0" r="1" gradientUnits="userSpaceOnUse" gradientTransform="translate(22.0165 10.8008) rotate(-116.432) scale(5.28273 7.1217)">
<stop stop-color="#C39B78"/>
<stop offset="1" stop-color="#C39B78" stop-opacity="0"/>
</radialGradient>
<radialGradient id="paint21_radial_13419_45216" cx="0" cy="0" r="1" gradientUnits="userSpaceOnUse" gradientTransform="translate(20.0978 8.79697) rotate(-178.462) scale(1.11328 2.31931)">
<stop stop-color="#99725E"/>
<stop offset="1" stop-color="#BA9582" stop-opacity="0"/>
</radialGradient>
<radialGradient id="paint22_radial_13419_45216" cx="0" cy="0" r="1" gradientUnits="userSpaceOnUse" gradientTransform="translate(14.7316 3.30917) rotate(46.2081) scale(2.44484 3.59458)">
<stop stop-color="white" stop-opacity="0.47"/>
<stop offset="0.40291" stop-color="white" stop-opacity="0.33179"/>
<stop offset="1" stop-color="white" stop-opacity="0"/>
</radialGradient>
<radialGradient id="paint23_radial_13419_45216" cx="0" cy="0" r="1" gradientUnits="userSpaceOnUse" gradientTransform="translate(19.4657 6.37929) rotate(143.274) scale(2.3185)">
<stop stop-color="white"/>
<stop offset="0.939903" stop-color="white" stop-opacity="0"/>
</radialGradient>
<radialGradient id="paint24_radial_13419_45216" cx="0" cy="0" r="1" gradientUnits="userSpaceOnUse" gradientTransform="translate(21.9412 4.81232) rotate(-180) scale(2.63342)">
<stop stop-color="#D8D8DC"/>
<stop offset="1" stop-color="#DDDDE1" stop-opacity="0"/>
</radialGradient>
<radialGradient id="paint25_radial_13419_45216" cx="0" cy="0" r="1" gradientUnits="userSpaceOnUse" gradientTransform="translate(16.4284 3.46926) rotate(128.236) scale(2.48432)">
<stop stop-color="#EBEBF0"/>
<stop offset="0.599806" stop-color="#ECECF1" stop-opacity="0.33"/>
<stop offset="1" stop-color="#EDEDF1" stop-opacity="0"/>
</radialGradient>
<radialGradient id="paint26_radial_13419_45216" cx="0" cy="0" r="1" gradientUnits="userSpaceOnUse" gradientTransform="translate(8.57849 4.06459) rotate(89.0608) scale(3.53341)">
<stop stop-color="#D5D3D7"/>
<stop offset="1" stop-color="#DAD8DC" stop-opacity="0"/>
</radialGradient>
<radialGradient id="paint27_radial_13419_45216" cx="0" cy="0" r="1" gradientUnits="userSpaceOnUse" gradientTransform="translate(9.21558 3.25375) rotate(73.4956) scale(3.26191 2.34858)">
<stop stop-color="#D5D3D7"/>
<stop offset="1" stop-color="#DAD8DC" stop-opacity="0"/>
</radialGradient>
<radialGradient id="paint28_radial_13419_45216" cx="0" cy="0" r="1" gradientUnits="userSpaceOnUse" gradientTransform="translate(9.73499 3.91592) rotate(76.7891) scale(2.11073)">
<stop stop-color="#E8E8EC"/>
<stop offset="0.603763" stop-color="#E8E8EC" stop-opacity="0.32"/>
<stop offset="1" stop-color="#E8E8EC" stop-opacity="0"/>
</radialGradient>
<radialGradient id="paint29_radial_13419_45216" cx="0" cy="0" r="1" gradientUnits="userSpaceOnUse" gradientTransform="translate(4.15861 7.53732) rotate(134.265) scale(1.12572 1.61897)">
<stop stop-color="#FFE363"/>
<stop offset="0.536458" stop-color="#F4C222"/>
<stop offset="1" stop-color="#ED8546"/>
</radialGradient>
<radialGradient id="paint30_radial_13419_45216" cx="0" cy="0" r="1" gradientUnits="userSpaceOnUse" gradientTransform="translate(24.2567 8.42227) rotate(134.265) scale(1.09293 1.57182)">
<stop stop-color="#FFE363"/>
<stop offset="0.536458" stop-color="#F4C222"/>
<stop offset="1" stop-color="#ED8546"/>
</radialGradient>
<radialGradient id="paint31_radial_13419_45216" cx="0" cy="0" r="1" gradientUnits="userSpaceOnUse" gradientTransform="translate(21.854 4.78751) rotate(137.553) scale(1.57637 2.26707)">
<stop stop-color="#FFEF52"/>
<stop offset="0.536458" stop-color="#F4C222"/>
<stop offset="1" stop-color="#ED8546"/>
</radialGradient>
<radialGradient id="paint32_radial_13419_45216" cx="0" cy="0" r="1" gradientUnits="userSpaceOnUse" gradientTransform="translate(5.83386 3.21785) rotate(135.205) scale(1.87501 2.69657)">
<stop stop-color="#FFF055"/>
<stop offset="0.536458" stop-color="#F4C222"/>
<stop offset="1" stop-color="#ED8546"/>
</radialGradient>
<linearGradient id="paint33_linear_13419_45216" x1="13.7859" y1="11.6516" x2="9.30123" y2="15.3242" gradientUnits="userSpaceOnUse">
<stop stop-color="#F7F5FA"/>
<stop offset="0.9832" stop-color="#C9998D"/>
</linearGradient>
<radialGradient id="paint34_radial_13419_45216" cx="0" cy="0" r="1" gradientUnits="userSpaceOnUse" gradientTransform="translate(18.9828 6.90858) rotate(126.755) scale(7.84401)">
<stop offset="0.0535135" stop-color="#F5F2F9"/>
<stop offset="0.564781" stop-color="#C4B9BA"/>
<stop offset="0.721059" stop-color="#C3B8B8"/>
<stop offset="1" stop-color="#C9B5C4" stop-opacity="0"/>
</radialGradient>
<radialGradient id="paint35_radial_13419_45216" cx="0" cy="0" r="1" gradientUnits="userSpaceOnUse" gradientTransform="translate(20.4228 7.76845) rotate(156.67) scale(2.60043 3.62924)">
<stop stop-color="#FAF8FC"/>
<stop offset="0.984375" stop-color="#FAF8FC" stop-opacity="0"/>
</radialGradient>
<radialGradient id="paint36_radial_13419_45216" cx="0" cy="0" r="1" gradientUnits="userSpaceOnUse" gradientTransform="translate(17.1592 7.83148) rotate(127.999) scale(3.51283)">
<stop offset="0.848958" stop-color="#C6BFC0" stop-opacity="0"/>
<stop offset="1" stop-color="#C0B3B5"/>
</radialGradient>
<radialGradient id="paint37_radial_13419_45216" cx="0" cy="0" r="1" gradientUnits="userSpaceOnUse" gradientTransform="translate(17.058 11.1334) rotate(96.7098) scale(1.06108 2.47826)">
<stop stop-color="#CDABD2"/>
<stop offset="1" stop-color="#CDABD2" stop-opacity="0"/>
</radialGradient>
<radialGradient id="paint38_radial_13419_45216" cx="0" cy="0" r="1" gradientUnits="userSpaceOnUse" gradientTransform="translate(18.5102 11.3326) rotate(151.66) scale(2.19492 0.809687)">
<stop stop-color="#654D55"/>
<stop offset="1" stop-color="#B0939D" stop-opacity="0"/>
</radialGradient>
<radialGradient id="paint39_radial_13419_45216" cx="0" cy="0" r="1" gradientUnits="userSpaceOnUse" gradientTransform="translate(10.4655 11.3569) rotate(18.7865) scale(2.95913 1.0916)">
<stop stop-color="#654D55"/>
<stop offset="1" stop-color="#B0939D" stop-opacity="0"/>
</radialGradient>
<radialGradient id="paint40_radial_13419_45216" cx="0" cy="0" r="1" gradientUnits="userSpaceOnUse" gradientTransform="translate(14.289 11.4123) rotate(90) scale(5.08727 7.09996)">
<stop stop-color="#D9BCDE"/>
<stop offset="1" stop-color="#D9BCDE" stop-opacity="0"/>
</radialGradient>
<radialGradient id="paint41_radial_13419_45216" cx="0" cy="0" r="1" gradientUnits="userSpaceOnUse" gradientTransform="translate(12.4289 12.0134) rotate(91.9525) scale(2.72749)">
<stop stop-color="#D2A6D2"/>
<stop offset="1" stop-color="#D2A6D2" stop-opacity="0"/>
</radialGradient>
<radialGradient id="paint42_radial_13419_45216" cx="0" cy="0" r="1" gradientUnits="userSpaceOnUse" gradientTransform="translate(15.5815 12.5959) rotate(163.954) scale(2.16122)">
<stop stop-color="#FFF0FF"/>
<stop offset="1" stop-color="#FFF0FF" stop-opacity="0"/>
</radialGradient>
<radialGradient id="paint43_radial_13419_45216" cx="0" cy="0" r="1" gradientUnits="userSpaceOnUse" gradientTransform="translate(12.8694 6.99824) rotate(69.4773) scale(4.04927 2.87627)">
<stop stop-color="#F9F5FD"/>
<stop offset="0.912242" stop-color="#F9F5FD" stop-opacity="0"/>
</radialGradient>
<radialGradient id="paint44_radial_13419_45216" cx="0" cy="0" r="1" gradientUnits="userSpaceOnUse" gradientTransform="translate(13.1873 7.12495) rotate(62.0346) scale(2.34939)">
<stop stop-color="#F9F5FD"/>
<stop offset="0.621204" stop-color="#F9F5FD" stop-opacity="0.18"/>
<stop offset="0.912242" stop-color="#F9F5FD" stop-opacity="0"/>
</radialGradient>
<radialGradient id="paint45_radial_13419_45216" cx="0" cy="0" r="1" gradientUnits="userSpaceOnUse" gradientTransform="translate(15.6353 10.4609) rotate(120.329) scale(8.32461 8.32461)">
<stop offset="0.84948" stop-color="#C1A8A4" stop-opacity="0"/>
<stop offset="1" stop-color="#B0928D"/>
</radialGradient>
<radialGradient id="paint46_radial_13419_45216" cx="0" cy="0" r="1" gradientUnits="userSpaceOnUse" gradientTransform="translate(8.15527 8.04005) rotate(83.8067) scale(3.50825 2.57063)">
<stop stop-color="#D4ABA5"/>
<stop offset="1" stop-color="#D4ABA5" stop-opacity="0"/>
</radialGradient>
<linearGradient id="paint47_linear_13419_45216" x1="11.0022" y1="16.1875" x2="11.0022" y2="18.8125" gradientUnits="userSpaceOnUse">
<stop stop-color="#553B3E"/>
<stop offset="1" stop-color="#3D2432"/>
</linearGradient>
</defs>
</svg>
