<svg width="29" height="28" viewBox="0 0 29 28" fill="none" xmlns="http://www.w3.org/2000/svg">
<path d="M13.1714 3.74645C13.8498 2.19551 15.3325 1.51438 16.8354 2.02378C18.4491 2.56999 19.1597 4.21078 18.271 6.52133C17.7749 7.81127 17.1909 9.58383 17.1909 9.58383C17.1909 9.58383 16.655 10.2894 16.4182 10.5178C19.0565 11.8657 20.8644 14.6221 20.8644 17.8033C20.8644 18.6652 20.7317 19.4959 20.4858 20.2759L19.6655 26.1685C19.6655 26.1685 13.7593 26.0591 13.2261 26.0591C12.6929 26.0591 4.57178 26.3599 4.57178 17.8033C4.57178 12.6333 8.05811 11.404 9.0835 10.6646C10.1089 9.92514 11.1247 8.82077 11.5308 8.06625C12.213 6.7985 12.6233 4.99947 13.1714 3.74645Z" fill="url(#paint0_radial_12000_91572)"/>
<path d="M13.1714 3.74645C13.8498 2.19551 15.3325 1.51438 16.8354 2.02378C18.4491 2.56999 19.1597 4.21078 18.271 6.52133C17.7749 7.81127 17.1909 9.58383 17.1909 9.58383C17.1909 9.58383 16.655 10.2894 16.4182 10.5178C19.0565 11.8657 20.8644 14.6221 20.8644 17.8033C20.8644 18.6652 20.7317 19.4959 20.4858 20.2759L19.6655 26.1685C19.6655 26.1685 13.7593 26.0591 13.2261 26.0591C12.6929 26.0591 4.57178 26.3599 4.57178 17.8033C4.57178 12.6333 8.05811 11.404 9.0835 10.6646C10.1089 9.92514 11.1247 8.82077 11.5308 8.06625C12.213 6.7985 12.6233 4.99947 13.1714 3.74645Z" fill="url(#paint1_radial_12000_91572)"/>
<path d="M13.1714 3.74645C13.8498 2.19551 15.3325 1.51438 16.8354 2.02378C18.4491 2.56999 19.1597 4.21078 18.271 6.52133C17.7749 7.81127 17.1909 9.58383 17.1909 9.58383C17.1909 9.58383 16.655 10.2894 16.4182 10.5178C19.0565 11.8657 20.8644 14.6221 20.8644 17.8033C20.8644 18.6652 20.7317 19.4959 20.4858 20.2759L19.6655 26.1685C19.6655 26.1685 13.7593 26.0591 13.2261 26.0591C12.6929 26.0591 4.57178 26.3599 4.57178 17.8033C4.57178 12.6333 8.05811 11.404 9.0835 10.6646C10.1089 9.92514 11.1247 8.82077 11.5308 8.06625C12.213 6.7985 12.6233 4.99947 13.1714 3.74645Z" fill="url(#paint2_radial_12000_91572)"/>
<path d="M13.1714 3.74645C13.8498 2.19551 15.3325 1.51438 16.8354 2.02378C18.4491 2.56999 19.1597 4.21078 18.271 6.52133C17.7749 7.81127 17.1909 9.58383 17.1909 9.58383C17.1909 9.58383 16.655 10.2894 16.4182 10.5178C19.0565 11.8657 20.8644 14.6221 20.8644 17.8033C20.8644 18.6652 20.7317 19.4959 20.4858 20.2759L19.6655 26.1685C19.6655 26.1685 13.7593 26.0591 13.2261 26.0591C12.6929 26.0591 4.57178 26.3599 4.57178 17.8033C4.57178 12.6333 8.05811 11.404 9.0835 10.6646C10.1089 9.92514 11.1247 8.82077 11.5308 8.06625C12.213 6.7985 12.6233 4.99947 13.1714 3.74645Z" fill="url(#paint3_linear_12000_91572)"/>
<path d="M13.1714 3.74645C13.8498 2.19551 15.3325 1.51438 16.8354 2.02378C18.4491 2.56999 19.1597 4.21078 18.271 6.52133C17.7749 7.81127 17.1909 9.58383 17.1909 9.58383C17.1909 9.58383 16.655 10.2894 16.4182 10.5178C19.0565 11.8657 20.8644 14.6221 20.8644 17.8033C20.8644 18.6652 20.7317 19.4959 20.4858 20.2759L19.6655 26.1685C19.6655 26.1685 13.7593 26.0591 13.2261 26.0591C12.6929 26.0591 4.57178 26.3599 4.57178 17.8033C4.57178 12.6333 8.05811 11.404 9.0835 10.6646C10.1089 9.92514 11.1247 8.82077 11.5308 8.06625C12.213 6.7985 12.6233 4.99947 13.1714 3.74645Z" fill="url(#paint4_radial_12000_91572)"/>
<path d="M13.1714 3.74645C13.8498 2.19551 15.3325 1.51438 16.8354 2.02378C18.4491 2.56999 19.1597 4.21078 18.271 6.52133C17.7749 7.81127 17.1909 9.58383 17.1909 9.58383C17.1909 9.58383 16.655 10.2894 16.4182 10.5178C19.0565 11.8657 20.8644 14.6221 20.8644 17.8033C20.8644 18.6652 20.7317 19.4959 20.4858 20.2759L19.6655 26.1685C19.6655 26.1685 13.7593 26.0591 13.2261 26.0591C12.6929 26.0591 4.57178 26.3599 4.57178 17.8033C4.57178 12.6333 8.05811 11.404 9.0835 10.6646C10.1089 9.92514 11.1247 8.82077 11.5308 8.06625C12.213 6.7985 12.6233 4.99947 13.1714 3.74645Z" fill="url(#paint5_radial_12000_91572)"/>
<path d="M13.1714 3.74645C13.8498 2.19551 15.3325 1.51438 16.8354 2.02378C18.4491 2.56999 19.1597 4.21078 18.271 6.52133C17.7749 7.81127 17.1909 9.58383 17.1909 9.58383C17.1909 9.58383 16.655 10.2894 16.4182 10.5178C19.0565 11.8657 20.8644 14.6221 20.8644 17.8033C20.8644 18.6652 20.7317 19.4959 20.4858 20.2759L19.6655 26.1685C19.6655 26.1685 13.7593 26.0591 13.2261 26.0591C12.6929 26.0591 4.57178 26.3599 4.57178 17.8033C4.57178 12.6333 8.05811 11.404 9.0835 10.6646C10.1089 9.92514 11.1247 8.82077 11.5308 8.06625C12.213 6.7985 12.6233 4.99947 13.1714 3.74645Z" fill="url(#paint6_radial_12000_91572)"/>
<path d="M13.1714 3.74645C13.8498 2.19551 15.3325 1.51438 16.8354 2.02378C18.4491 2.56999 19.1597 4.21078 18.271 6.52133C17.7749 7.81127 17.1909 9.58383 17.1909 9.58383C17.1909 9.58383 16.655 10.2894 16.4182 10.5178C19.0565 11.8657 20.8644 14.6221 20.8644 17.8033C20.8644 18.6652 20.7317 19.4959 20.4858 20.2759L19.6655 26.1685C19.6655 26.1685 13.7593 26.0591 13.2261 26.0591C12.6929 26.0591 4.57178 26.3599 4.57178 17.8033C4.57178 12.6333 8.05811 11.404 9.0835 10.6646C10.1089 9.92514 11.1247 8.82077 11.5308 8.06625C12.213 6.7985 12.6233 4.99947 13.1714 3.74645Z" fill="url(#paint7_radial_12000_91572)"/>
<path d="M13.1714 3.74645C13.8498 2.19551 15.3325 1.51438 16.8354 2.02378C18.4491 2.56999 19.1597 4.21078 18.271 6.52133C17.7749 7.81127 17.1909 9.58383 17.1909 9.58383C17.1909 9.58383 16.655 10.2894 16.4182 10.5178C19.0565 11.8657 20.8644 14.6221 20.8644 17.8033C20.8644 18.6652 20.7317 19.4959 20.4858 20.2759L19.6655 26.1685C19.6655 26.1685 13.7593 26.0591 13.2261 26.0591C12.6929 26.0591 4.57178 26.3599 4.57178 17.8033C4.57178 12.6333 8.05811 11.404 9.0835 10.6646C10.1089 9.92514 11.1247 8.82077 11.5308 8.06625C12.213 6.7985 12.6233 4.99947 13.1714 3.74645Z" fill="url(#paint8_radial_12000_91572)"/>
<path d="M13.1709 3.74709C13.8493 2.19615 15.332 1.51502 16.835 2.02442C18.4486 2.57063 19.1592 4.21142 18.2705 6.52197C17.7744 7.81191 17.1904 9.58447 17.1904 9.58447L16.4178 10.5184C12.6377 12.4414 9.08301 10.6652 9.08301 10.6652C10.1084 9.92578 11.1242 8.82141 11.5303 8.06689C12.2126 6.79914 12.6228 5.00011 13.1709 3.74709Z" fill="#FDB026"/>
<path d="M13.1709 3.74709C13.8493 2.19615 15.332 1.51502 16.835 2.02442C18.4486 2.57063 19.1592 4.21142 18.2705 6.52197C17.7744 7.81191 17.1904 9.58447 17.1904 9.58447L16.4178 10.5184C12.6377 12.4414 9.08301 10.6652 9.08301 10.6652C10.1084 9.92578 11.1242 8.82141 11.5303 8.06689C12.2126 6.79914 12.6228 5.00011 13.1709 3.74709Z" fill="url(#paint9_radial_12000_91572)"/>
<path d="M13.1709 3.74709C13.8493 2.19615 15.332 1.51502 16.835 2.02442C18.4486 2.57063 19.1592 4.21142 18.2705 6.52197C17.7744 7.81191 17.1904 9.58447 17.1904 9.58447L16.4178 10.5184C12.6377 12.4414 9.08301 10.6652 9.08301 10.6652C10.1084 9.92578 11.1242 8.82141 11.5303 8.06689C12.2126 6.79914 12.6228 5.00011 13.1709 3.74709Z" fill="url(#paint10_radial_12000_91572)"/>
<path d="M13.1709 3.74709C13.8493 2.19615 15.332 1.51502 16.835 2.02442C18.4486 2.57063 19.1592 4.21142 18.2705 6.52197C17.7744 7.81191 17.1904 9.58447 17.1904 9.58447L16.4178 10.5184C12.6377 12.4414 9.08301 10.6652 9.08301 10.6652C10.1084 9.92578 11.1242 8.82141 11.5303 8.06689C12.2126 6.79914 12.6228 5.00011 13.1709 3.74709Z" fill="url(#paint11_radial_12000_91572)"/>
<path d="M13.1709 3.74709C13.8493 2.19615 15.332 1.51502 16.835 2.02442C18.4486 2.57063 19.1592 4.21142 18.2705 6.52197C17.7744 7.81191 17.1904 9.58447 17.1904 9.58447L16.4178 10.5184C12.6377 12.4414 9.08301 10.6652 9.08301 10.6652C10.1084 9.92578 11.1242 8.82141 11.5303 8.06689C12.2126 6.79914 12.6228 5.00011 13.1709 3.74709Z" fill="url(#paint12_radial_12000_91572)"/>
<path d="M13.1709 3.74709C13.8493 2.19615 15.332 1.51502 16.835 2.02442C18.4486 2.57063 19.1592 4.21142 18.2705 6.52197C17.7744 7.81191 17.1904 9.58447 17.1904 9.58447L16.4178 10.5184C12.6377 12.4414 9.08301 10.6652 9.08301 10.6652C10.1084 9.92578 11.1242 8.82141 11.5303 8.06689C12.2126 6.79914 12.6228 5.00011 13.1709 3.74709Z" fill="url(#paint13_radial_12000_91572)"/>
<rect x="22.9434" y="9.55322" width="5.09268" height="7.91307" rx="2.54634" transform="rotate(90 22.9434 9.55322)" fill="url(#paint14_radial_12000_91572)"/>
<rect x="22.9434" y="9.55322" width="5.09268" height="7.91307" rx="2.54634" transform="rotate(90 22.9434 9.55322)" fill="url(#paint15_linear_12000_91572)"/>
<rect x="22.9434" y="9.55322" width="5.09268" height="7.91307" rx="2.54634" transform="rotate(90 22.9434 9.55322)" fill="url(#paint16_radial_12000_91572)"/>
<rect x="22.3174" y="21.2461" width="4.95565" height="6.28906" rx="2.47783" transform="rotate(90 22.3174 21.2461)" fill="url(#paint17_radial_12000_91572)"/>
<rect x="22.3174" y="21.2461" width="4.95565" height="6.28906" rx="2.47783" transform="rotate(90 22.3174 21.2461)" fill="url(#paint18_radial_12000_91572)"/>
<rect x="22.3174" y="21.2461" width="4.95565" height="6.28906" rx="2.47783" transform="rotate(90 22.3174 21.2461)" fill="url(#paint19_radial_12000_91572)"/>
<rect x="22.3174" y="21.2461" width="4.95565" height="6.28906" rx="2.47783" transform="rotate(90 22.3174 21.2461)" fill="url(#paint20_radial_12000_91572)"/>
<rect x="22.3174" y="21.2461" width="4.95565" height="6.28906" rx="2.47783" transform="rotate(90 22.3174 21.2461)" fill="url(#paint21_radial_12000_91572)"/>
<rect x="22.3174" y="21.2461" width="4.95565" height="6.28906" rx="2.47783" transform="rotate(90 22.3174 21.2461)" fill="url(#paint22_radial_12000_91572)"/>
<rect x="22.3174" y="21.2461" width="4.95565" height="6.28906" rx="2.47783" transform="rotate(90 22.3174 21.2461)" fill="url(#paint23_radial_12000_91572)"/>
<rect x="22.3174" y="21.2461" width="4.95565" height="6.28906" rx="2.47783" transform="rotate(90 22.3174 21.2461)" fill="url(#paint24_radial_12000_91572)"/>
<rect x="23.4795" y="17.6914" width="4.99023" height="8.44969" rx="2.49512" transform="rotate(90 23.4795 17.6914)" fill="url(#paint25_radial_12000_91572)"/>
<rect x="23.4795" y="17.6914" width="4.99023" height="8.44969" rx="2.49512" transform="rotate(90 23.4795 17.6914)" fill="url(#paint26_radial_12000_91572)"/>
<rect x="23.4795" y="17.6914" width="4.99023" height="8.44969" rx="2.49512" transform="rotate(90 23.4795 17.6914)" fill="url(#paint27_radial_12000_91572)"/>
<rect x="23.4795" y="17.6914" width="4.99023" height="8.44969" rx="2.49512" transform="rotate(90 23.4795 17.6914)" fill="url(#paint28_radial_12000_91572)"/>
<rect x="23.8794" y="13.7812" width="4.60742" height="9.56006" rx="2.30371" transform="rotate(90 23.8794 13.7812)" fill="url(#paint29_radial_12000_91572)"/>
<rect x="23.8794" y="13.7812" width="4.60742" height="9.56006" rx="2.30371" transform="rotate(90 23.8794 13.7812)" fill="url(#paint30_radial_12000_91572)"/>
<defs>
<radialGradient id="paint0_radial_12000_91572" cx="0" cy="0" r="1" gradientUnits="userSpaceOnUse" gradientTransform="translate(19.0366 18.4837) rotate(-180) scale(21.6562 19.6328)">
<stop stop-color="#FCA148"/>
<stop offset="0.507576" stop-color="#FFC32B"/>
<stop offset="0.689394" stop-color="#ECA332"/>
<stop offset="1" stop-color="#F8A528"/>
</radialGradient>
<radialGradient id="paint1_radial_12000_91572" cx="0" cy="0" r="1" gradientUnits="userSpaceOnUse" gradientTransform="translate(12.7185 17.6634) rotate(75.9588) scale(19.2792 19.5334)">
<stop offset="0.345735" stop-color="#D5A75B" stop-opacity="0"/>
<stop offset="0.427604" stop-color="#D5A75B"/>
</radialGradient>
<radialGradient id="paint2_radial_12000_91572" cx="0" cy="0" r="1" gradientUnits="userSpaceOnUse" gradientTransform="translate(16.9038 20.015) rotate(85.3196) scale(9.38285 6.69845)">
<stop offset="0.529843" stop-color="#F59842"/>
<stop offset="1" stop-color="#F59842" stop-opacity="0"/>
</radialGradient>
<linearGradient id="paint3_linear_12000_91572" x1="10.2866" y1="26.5775" x2="10.2866" y2="16.8431" gradientUnits="userSpaceOnUse">
<stop stop-color="#DB7D5C"/>
<stop offset="1" stop-color="#FFA746" stop-opacity="0"/>
</linearGradient>
<radialGradient id="paint4_radial_12000_91572" cx="0" cy="0" r="1" gradientUnits="userSpaceOnUse" gradientTransform="translate(16.8491 13.6165) rotate(-1.52076) scale(6.18186 4.64777)">
<stop offset="0.193422" stop-color="#C36F14"/>
<stop offset="0.643579" stop-color="#F59842" stop-opacity="0"/>
</radialGradient>
<radialGradient id="paint5_radial_12000_91572" cx="0" cy="0" r="1" gradientUnits="userSpaceOnUse" gradientTransform="translate(16.0835 17.2259) rotate(-6.14661) scale(7.15048 6.63185)">
<stop offset="0.215957" stop-color="#C36F14"/>
<stop offset="0.701321" stop-color="#F59842" stop-opacity="0"/>
</radialGradient>
<radialGradient id="paint6_radial_12000_91572" cx="0" cy="0" r="1" gradientUnits="userSpaceOnUse" gradientTransform="translate(16.8491 20.2064) rotate(0.753843) scale(6.23491 8.34844)">
<stop offset="0.287032" stop-color="#C36F14"/>
<stop offset="0.569673" stop-color="#F59842" stop-opacity="0"/>
</radialGradient>
<radialGradient id="paint7_radial_12000_91572" cx="0" cy="0" r="1" gradientUnits="userSpaceOnUse" gradientTransform="translate(17.0679 23.3509) rotate(-15.3885) scale(6.18259 6.61892)">
<stop offset="0.174171" stop-color="#C56736"/>
<stop offset="0.643579" stop-color="#F59842" stop-opacity="0"/>
</radialGradient>
<radialGradient id="paint8_radial_12000_91572" cx="0" cy="0" r="1" gradientUnits="userSpaceOnUse" gradientTransform="translate(15.8101 10.39) rotate(64.5367) scale(1.272 2.93665)">
<stop offset="0.4792" stop-color="#FFC054"/>
<stop offset="1" stop-color="#FFC054" stop-opacity="0"/>
</radialGradient>
<radialGradient id="paint9_radial_12000_91572" cx="0" cy="0" r="1" gradientUnits="userSpaceOnUse" gradientTransform="translate(17.2861 4.70312) rotate(114.164) scale(15.7641 5.26402)">
<stop offset="0.164912" stop-color="#FFCF47"/>
<stop offset="0.748557" stop-color="#FFB126"/>
</radialGradient>
<radialGradient id="paint10_radial_12000_91572" cx="0" cy="0" r="1" gradientUnits="userSpaceOnUse" gradientTransform="translate(10.7236 1.3125) rotate(100.798) scale(10.8006 3.47197)">
<stop offset="0.801269" stop-color="#D5A75B"/>
<stop offset="1" stop-color="#D5A75B" stop-opacity="0"/>
</radialGradient>
<radialGradient id="paint11_radial_12000_91572" cx="0" cy="0" r="1" gradientUnits="userSpaceOnUse" gradientTransform="translate(11.8174 11.1836) rotate(124.242) scale(3.93617 1.58552)">
<stop offset="0.444359" stop-color="#FFC22B"/>
<stop offset="1" stop-color="#FFC22C" stop-opacity="0"/>
</radialGradient>
<radialGradient id="paint12_radial_12000_91572" cx="0" cy="0" r="1" gradientUnits="userSpaceOnUse" gradientTransform="translate(16.5752 5.46875) rotate(109.612) scale(5.05083 2.07125)">
<stop stop-color="#FFCE47"/>
<stop offset="1" stop-color="#FFCE47" stop-opacity="0"/>
</radialGradient>
<radialGradient id="paint13_radial_12000_91572" cx="0" cy="0" r="1" gradientUnits="userSpaceOnUse" gradientTransform="translate(17.1221 3.99219) rotate(83.211) scale(2.31309 2.01136)">
<stop stop-color="#FFF067"/>
<stop offset="1" stop-color="#FFF067" stop-opacity="0"/>
</radialGradient>
<radialGradient id="paint14_radial_12000_91572" cx="0" cy="0" r="1" gradientUnits="userSpaceOnUse" gradientTransform="translate(24.8745 11.2725) rotate(90) scale(6.19336 3.98591)">
<stop offset="0.0706402" stop-color="#FFEF66"/>
<stop offset="0.785872" stop-color="#FEB426"/>
<stop offset="1" stop-color="#E5A340"/>
</radialGradient>
<linearGradient id="paint15_linear_12000_91572" x1="27.3901" y1="13.1865" x2="26.3511" y2="13.1865" gradientUnits="userSpaceOnUse">
<stop stop-color="#F4A009"/>
<stop offset="0.684211" stop-color="#F4A009" stop-opacity="0"/>
</linearGradient>
<radialGradient id="paint16_radial_12000_91572" cx="0" cy="0" r="1" gradientUnits="userSpaceOnUse" gradientTransform="translate(28.0361 16.5225) rotate(124.356) scale(3.17972 1.8144)">
<stop offset="0.336779" stop-color="#D98320"/>
<stop offset="1" stop-color="#D98320" stop-opacity="0"/>
</radialGradient>
<radialGradient id="paint17_radial_12000_91572" cx="0" cy="0" r="1" gradientUnits="userSpaceOnUse" gradientTransform="translate(24.2314 22.2852) rotate(89.2116) scale(5.9615 4.69754)">
<stop stop-color="#FFDA53"/>
<stop offset="0.683436" stop-color="#FFAE4C"/>
<stop offset="1" stop-color="#E59228"/>
</radialGradient>
<radialGradient id="paint18_radial_12000_91572" cx="0" cy="0" r="1" gradientUnits="userSpaceOnUse" gradientTransform="translate(27.9229 26.2773) rotate(-97.1135) scale(5.2474 2.10276)">
<stop stop-color="#F29545"/>
<stop offset="1" stop-color="#F29545" stop-opacity="0"/>
</radialGradient>
<radialGradient id="paint19_radial_12000_91572" cx="0" cy="0" r="1" gradientUnits="userSpaceOnUse" gradientTransform="translate(21.9893 33.7969) rotate(-82.8317) scale(17.9686 1.82974)">
<stop offset="0.645549" stop-color="#EE970B"/>
<stop offset="0.700392" stop-color="#EE970B" stop-opacity="0"/>
</radialGradient>
<radialGradient id="paint20_radial_12000_91572" cx="0" cy="0" r="1" gradientUnits="userSpaceOnUse" gradientTransform="translate(25.0518 22.7227) rotate(-90) scale(8.72266 6.66315)">
<stop offset="0.354232" stop-color="#D17D15" stop-opacity="0"/>
<stop offset="0.72369" stop-color="#BE691D"/>
</radialGradient>
<radialGradient id="paint21_radial_12000_91572" cx="0" cy="0" r="1" gradientUnits="userSpaceOnUse" gradientTransform="translate(22.9463 26.7695) rotate(77.3998) scale(4.76315 2.03493)">
<stop stop-color="#CF7916"/>
<stop offset="1" stop-color="#CF7916" stop-opacity="0"/>
</radialGradient>
<radialGradient id="paint22_radial_12000_91572" cx="0" cy="0" r="1" gradientUnits="userSpaceOnUse" gradientTransform="translate(26.6104 27.5352) rotate(-52.125) scale(3.42943 1.11996)">
<stop stop-color="#D78867"/>
<stop offset="1" stop-color="#D78867" stop-opacity="0"/>
</radialGradient>
<radialGradient id="paint23_radial_12000_91572" cx="0" cy="0" r="1" gradientUnits="userSpaceOnUse" gradientTransform="translate(24.2861 24.0625) rotate(-176.915) scale(4.57303 6.6555)">
<stop offset="0.507317" stop-color="#DE89A6" stop-opacity="0"/>
<stop offset="0.658154" stop-color="#DA849D"/>
<stop offset="0.680473" stop-color="#E99DA8"/>
</radialGradient>
<radialGradient id="paint24_radial_12000_91572" cx="0" cy="0" r="1" gradientUnits="userSpaceOnUse" gradientTransform="translate(25.8447 27.8359) rotate(-28.3008) scale(2.82608 2.22689)">
<stop stop-color="#D6875C"/>
<stop offset="1" stop-color="#D6875C" stop-opacity="0"/>
</radialGradient>
<radialGradient id="paint25_radial_12000_91572" cx="0" cy="0" r="1" gradientUnits="userSpaceOnUse" gradientTransform="translate(25.3718 19.5272) rotate(90) scale(6.61336 3.90573)">
<stop offset="0.0706402" stop-color="#FFEA68"/>
<stop offset="0.785872" stop-color="#FEB426"/>
<stop offset="1" stop-color="#E5A340"/>
</radialGradient>
<radialGradient id="paint26_radial_12000_91572" cx="0" cy="0" r="1" gradientUnits="userSpaceOnUse" gradientTransform="translate(29.6318 24.7598) rotate(-91.7184) scale(10.9424 3.34266)">
<stop stop-color="#EE934A"/>
<stop offset="1" stop-color="#EE934A" stop-opacity="0"/>
</radialGradient>
<radialGradient id="paint27_radial_12000_91572" cx="0" cy="0" r="1" gradientUnits="userSpaceOnUse" gradientTransform="translate(27.4443 26.6465) rotate(-53.5194) scale(4.82902 1.47516)">
<stop stop-color="#D77B5F"/>
<stop offset="1" stop-color="#DA7D63" stop-opacity="0"/>
</radialGradient>
<radialGradient id="paint28_radial_12000_91572" cx="0" cy="0" r="1" gradientUnits="userSpaceOnUse" gradientTransform="translate(23.917 26.1406) rotate(-89.9187) scale(19.2637 0.847421)">
<stop offset="0.39245" stop-color="#EE970B"/>
<stop offset="0.858036" stop-color="#FFB610" stop-opacity="0"/>
</radialGradient>
<radialGradient id="paint29_radial_12000_91572" cx="0" cy="0" r="1" gradientUnits="userSpaceOnUse" gradientTransform="translate(25.6265 15.8583) rotate(90) scale(7.48242 3.60611)">
<stop offset="0.0706402" stop-color="#FFEF66"/>
<stop offset="0.785872" stop-color="#FEB426"/>
<stop offset="1" stop-color="#E5A340"/>
</radialGradient>
<radialGradient id="paint30_radial_12000_91572" cx="0" cy="0" r="1" gradientUnits="userSpaceOnUse" gradientTransform="translate(28.856 21.3042) rotate(-90) scale(14.5469 2.57031)">
<stop stop-color="#FFA84A"/>
<stop offset="1" stop-color="#F29545" stop-opacity="0"/>
</radialGradient>
</defs>
</svg>
