<svg width="29" height="28" viewBox="0 0 29 28" fill="none" xmlns="http://www.w3.org/2000/svg">
<path d="M11.3374 7.79063C12.6162 5.78973 13.3957 3.93662 13.8222 2.58543C14.0109 1.98759 14.781 1.74149 15.2357 2.17306C21.1475 7.78393 23.0874 12.0871 23.4768 17.0547C23.7639 21.8945 21.385 26.2012 15.0002 26.2012C9.00581 26.2012 4.58214 22.0176 5.18367 15.3867C5.53317 11.5341 6.99902 8.57354 8.21207 6.76051C8.643 6.11645 9.55516 6.10749 10.06 6.69539L11.0193 7.81251C11.1061 7.91354 11.2657 7.90285 11.3374 7.79063Z" fill="url(#paint0_radial_13419_45224)"/>
<path d="M11.3374 7.79063C12.6162 5.78973 13.3957 3.93662 13.8222 2.58543C14.0109 1.98759 14.781 1.74149 15.2357 2.17306C21.1475 7.78393 23.0874 12.0871 23.4768 17.0547C23.7639 21.8945 21.385 26.2012 15.0002 26.2012C9.00581 26.2012 4.58214 22.0176 5.18367 15.3867C5.53317 11.5341 6.99902 8.57354 8.21207 6.76051C8.643 6.11645 9.55516 6.10749 10.06 6.69539L11.0193 7.81251C11.1061 7.91354 11.2657 7.90285 11.3374 7.79063Z" fill="url(#paint1_radial_13419_45224)"/>
<path d="M11.3374 7.79063C12.6162 5.78973 13.3957 3.93662 13.8222 2.58543C14.0109 1.98759 14.781 1.74149 15.2357 2.17306C21.1475 7.78393 23.0874 12.0871 23.4768 17.0547C23.7639 21.8945 21.385 26.2012 15.0002 26.2012C9.00581 26.2012 4.58214 22.0176 5.18367 15.3867C5.53317 11.5341 6.99902 8.57354 8.21207 6.76051C8.643 6.11645 9.55516 6.10749 10.06 6.69539L11.0193 7.81251C11.1061 7.91354 11.2657 7.90285 11.3374 7.79063Z" fill="url(#paint2_radial_13419_45224)"/>
<path d="M11.3374 7.79063C12.6162 5.78973 13.3957 3.93662 13.8222 2.58543C14.0109 1.98759 14.781 1.74149 15.2357 2.17306C21.1475 7.78393 23.0874 12.0871 23.4768 17.0547C23.7639 21.8945 21.385 26.2012 15.0002 26.2012C9.00581 26.2012 4.58214 22.0176 5.18367 15.3867C5.53317 11.5341 6.99902 8.57354 8.21207 6.76051C8.643 6.11645 9.55516 6.10749 10.06 6.69539L11.0193 7.81251C11.1061 7.91354 11.2657 7.90285 11.3374 7.79063Z" fill="url(#paint3_linear_13419_45224)"/>
<path d="M11.3374 7.79063C12.6162 5.78973 13.3957 3.93662 13.8222 2.58543C14.0109 1.98759 14.781 1.74149 15.2357 2.17306C21.1475 7.78393 23.0874 12.0871 23.4768 17.0547C23.7639 21.8945 21.385 26.2012 15.0002 26.2012C9.00581 26.2012 4.58214 22.0176 5.18367 15.3867C5.53317 11.5341 6.99902 8.57354 8.21207 6.76051C8.643 6.11645 9.55516 6.10749 10.06 6.69539L11.0193 7.81251C11.1061 7.91354 11.2657 7.90285 11.3374 7.79063Z" fill="url(#paint4_radial_13419_45224)"/>
<path d="M11.3374 7.79063C12.6162 5.78973 13.3957 3.93662 13.8222 2.58543C14.0109 1.98759 14.781 1.74149 15.2357 2.17306C21.1475 7.78393 23.0874 12.0871 23.4768 17.0547C23.7639 21.8945 21.385 26.2012 15.0002 26.2012C9.00581 26.2012 4.58214 22.0176 5.18367 15.3867C5.53317 11.5341 6.99902 8.57354 8.21207 6.76051C8.643 6.11645 9.55516 6.10749 10.06 6.69539L11.0193 7.81251C11.1061 7.91354 11.2657 7.90285 11.3374 7.79063Z" fill="url(#paint5_radial_13419_45224)"/>
<path d="M11.3374 7.79063C12.6162 5.78973 13.3957 3.93662 13.8222 2.58543C14.0109 1.98759 14.781 1.74149 15.2357 2.17306C21.1475 7.78393 23.0874 12.0871 23.4768 17.0547C23.7639 21.8945 21.385 26.2012 15.0002 26.2012C9.00581 26.2012 4.58214 22.0176 5.18367 15.3867C5.53317 11.5341 6.99902 8.57354 8.21207 6.76051C8.643 6.11645 9.55516 6.10749 10.06 6.69539L11.0193 7.81251C11.1061 7.91354 11.2657 7.90285 11.3374 7.79063Z" fill="url(#paint6_radial_13419_45224)"/>
<path d="M11.3374 7.79063C12.6162 5.78973 13.3957 3.93662 13.8222 2.58543C14.0109 1.98759 14.781 1.74149 15.2357 2.17306C21.1475 7.78393 23.0874 12.0871 23.4768 17.0547C23.7639 21.8945 21.385 26.2012 15.0002 26.2012C9.00581 26.2012 4.58214 22.0176 5.18367 15.3867C5.53317 11.5341 6.99902 8.57354 8.21207 6.76051C8.643 6.11645 9.55516 6.10749 10.06 6.69539L11.0193 7.81251C11.1061 7.91354 11.2657 7.90285 11.3374 7.79063Z" fill="url(#paint7_radial_13419_45224)"/>
<path d="M11.3374 7.79063C12.6162 5.78973 13.3957 3.93662 13.8222 2.58543C14.0109 1.98759 14.781 1.74149 15.2357 2.17306C21.1475 7.78393 23.0874 12.0871 23.4768 17.0547C23.7639 21.8945 21.385 26.2012 15.0002 26.2012C9.00581 26.2012 4.58214 22.0176 5.18367 15.3867C5.53317 11.5341 6.99902 8.57354 8.21207 6.76051C8.643 6.11645 9.55516 6.10749 10.06 6.69539L11.0193 7.81251C11.1061 7.91354 11.2657 7.90285 11.3374 7.79063Z" fill="url(#paint8_radial_13419_45224)"/>
<path d="M11.3374 7.79063C12.6162 5.78973 13.3957 3.93662 13.8222 2.58543C14.0109 1.98759 14.781 1.74149 15.2357 2.17306C21.1475 7.78393 23.0874 12.0871 23.4768 17.0547C23.7639 21.8945 21.385 26.2012 15.0002 26.2012C9.00581 26.2012 4.58214 22.0176 5.18367 15.3867C5.53317 11.5341 6.99902 8.57354 8.21207 6.76051C8.643 6.11645 9.55516 6.10749 10.06 6.69539L11.0193 7.81251C11.1061 7.91354 11.2657 7.90285 11.3374 7.79063Z" fill="url(#paint9_radial_13419_45224)"/>
<path d="M11.3374 7.79063C12.6162 5.78973 13.3957 3.93662 13.8222 2.58543C14.0109 1.98759 14.781 1.74149 15.2357 2.17306C21.1475 7.78393 23.0874 12.0871 23.4768 17.0547C23.7639 21.8945 21.385 26.2012 15.0002 26.2012C9.00581 26.2012 4.58214 22.0176 5.18367 15.3867C5.53317 11.5341 6.99902 8.57354 8.21207 6.76051C8.643 6.11645 9.55516 6.10749 10.06 6.69539L11.0193 7.81251C11.1061 7.91354 11.2657 7.90285 11.3374 7.79063Z" fill="url(#paint10_radial_13419_45224)"/>
<path d="M11.3374 7.79063C12.6162 5.78973 13.3957 3.93662 13.8222 2.58543C14.0109 1.98759 14.781 1.74149 15.2357 2.17306C21.1475 7.78393 23.0874 12.0871 23.4768 17.0547C23.7639 21.8945 21.385 26.2012 15.0002 26.2012C9.00581 26.2012 4.58214 22.0176 5.18367 15.3867C5.53317 11.5341 6.99902 8.57354 8.21207 6.76051C8.643 6.11645 9.55516 6.10749 10.06 6.69539L11.0193 7.81251C11.1061 7.91354 11.2657 7.90285 11.3374 7.79063Z" fill="url(#paint11_radial_13419_45224)"/>
<path d="M11.3374 7.79063C12.6162 5.78973 13.3957 3.93662 13.8222 2.58543C14.0109 1.98759 14.781 1.74149 15.2357 2.17306C21.1475 7.78393 23.0874 12.0871 23.4768 17.0547C23.7639 21.8945 21.385 26.2012 15.0002 26.2012C9.00581 26.2012 4.58214 22.0176 5.18367 15.3867C5.53317 11.5341 6.99902 8.57354 8.21207 6.76051C8.643 6.11645 9.55516 6.10749 10.06 6.69539L11.0193 7.81251C11.1061 7.91354 11.2657 7.90285 11.3374 7.79063Z" fill="url(#paint12_radial_13419_45224)"/>
<path d="M11.3374 7.79063C12.6162 5.78973 13.3957 3.93662 13.8222 2.58543C14.0109 1.98759 14.781 1.74149 15.2357 2.17306C21.1475 7.78393 23.0874 12.0871 23.4768 17.0547C23.7639 21.8945 21.385 26.2012 15.0002 26.2012C9.00581 26.2012 4.58214 22.0176 5.18367 15.3867C5.53317 11.5341 6.99902 8.57354 8.21207 6.76051C8.643 6.11645 9.55516 6.10749 10.06 6.69539L11.0193 7.81251C11.1061 7.91354 11.2657 7.90285 11.3374 7.79063Z" fill="url(#paint13_radial_13419_45224)" fill-opacity="0.2"/>
<path d="M11.3374 7.79063C12.6162 5.78973 13.3957 3.93662 13.8222 2.58543C14.0109 1.98759 14.781 1.74149 15.2357 2.17306C21.1475 7.78393 23.0874 12.0871 23.4768 17.0547C23.7639 21.8945 21.385 26.2012 15.0002 26.2012C9.00581 26.2012 4.58214 22.0176 5.18367 15.3867C5.53317 11.5341 6.99902 8.57354 8.21207 6.76051C8.643 6.11645 9.55516 6.10749 10.06 6.69539L11.0193 7.81251C11.1061 7.91354 11.2657 7.90285 11.3374 7.79063Z" fill="url(#paint14_radial_13419_45224)"/>
<path d="M11.3374 7.79063C12.6162 5.78973 13.3957 3.93662 13.8222 2.58543C14.0109 1.98759 14.781 1.74149 15.2357 2.17306C21.1475 7.78393 23.0874 12.0871 23.4768 17.0547C23.7639 21.8945 21.385 26.2012 15.0002 26.2012C9.00581 26.2012 4.58214 22.0176 5.18367 15.3867C5.53317 11.5341 6.99902 8.57354 8.21207 6.76051C8.643 6.11645 9.55516 6.10749 10.06 6.69539L11.0193 7.81251C11.1061 7.91354 11.2657 7.90285 11.3374 7.79063Z" fill="url(#paint15_radial_13419_45224)"/>
<path d="M11.3374 7.79063C12.6162 5.78973 13.3957 3.93662 13.8222 2.58543C14.0109 1.98759 14.781 1.74149 15.2357 2.17306C21.1475 7.78393 23.0874 12.0871 23.4768 17.0547C23.7639 21.8945 21.385 26.2012 15.0002 26.2012C9.00581 26.2012 4.58214 22.0176 5.18367 15.3867C5.53317 11.5341 6.99902 8.57354 8.21207 6.76051C8.643 6.11645 9.55516 6.10749 10.06 6.69539L11.0193 7.81251C11.1061 7.91354 11.2657 7.90285 11.3374 7.79063Z" fill="url(#paint16_radial_13419_45224)"/>
<path d="M11.3374 7.79063C12.6162 5.78973 13.3957 3.93662 13.8222 2.58543C14.0109 1.98759 14.781 1.74149 15.2357 2.17306C21.1475 7.78393 23.0874 12.0871 23.4768 17.0547C23.7639 21.8945 21.385 26.2012 15.0002 26.2012C9.00581 26.2012 4.58214 22.0176 5.18367 15.3867C5.53317 11.5341 6.99902 8.57354 8.21207 6.76051C8.643 6.11645 9.55516 6.10749 10.06 6.69539L11.0193 7.81251C11.1061 7.91354 11.2657 7.90285 11.3374 7.79063Z" fill="url(#paint17_radial_13419_45224)"/>
<path d="M11.3374 7.79063C12.6162 5.78973 13.3957 3.93662 13.8222 2.58543C14.0109 1.98759 14.781 1.74149 15.2357 2.17306C21.1475 7.78393 23.0874 12.0871 23.4768 17.0547C23.7639 21.8945 21.385 26.2012 15.0002 26.2012C9.00581 26.2012 4.58214 22.0176 5.18367 15.3867C5.53317 11.5341 6.99902 8.57354 8.21207 6.76051C8.643 6.11645 9.55516 6.10749 10.06 6.69539L11.0193 7.81251C11.1061 7.91354 11.2657 7.90285 11.3374 7.79063Z" fill="url(#paint18_radial_13419_45224)" fill-opacity="0.3"/>
<path d="M11.3374 7.79063C12.6162 5.78973 13.3957 3.93662 13.8222 2.58543C14.0109 1.98759 14.781 1.74149 15.2357 2.17306C21.1475 7.78393 23.0874 12.0871 23.4768 17.0547C23.7639 21.8945 21.385 26.2012 15.0002 26.2012C9.00581 26.2012 4.58214 22.0176 5.18367 15.3867C5.53317 11.5341 6.99902 8.57354 8.21207 6.76051C8.643 6.11645 9.55516 6.10749 10.06 6.69539L11.0193 7.81251C11.1061 7.91354 11.2657 7.90285 11.3374 7.79063Z" fill="url(#paint19_radial_13419_45224)" fill-opacity="0.4"/>
<path d="M11.3374 7.79063C12.6162 5.78973 13.3957 3.93662 13.8222 2.58543C14.0109 1.98759 14.781 1.74149 15.2357 2.17306C21.1475 7.78393 23.0874 12.0871 23.4768 17.0547C23.7639 21.8945 21.385 26.2012 15.0002 26.2012C9.00581 26.2012 4.58214 22.0176 5.18367 15.3867C5.53317 11.5341 6.99902 8.57354 8.21207 6.76051C8.643 6.11645 9.55516 6.10749 10.06 6.69539L11.0193 7.81251C11.1061 7.91354 11.2657 7.90285 11.3374 7.79063Z" fill="url(#paint20_radial_13419_45224)"/>
<path d="M11.3374 7.79063C12.6162 5.78973 13.3957 3.93662 13.8222 2.58543C14.0109 1.98759 14.781 1.74149 15.2357 2.17306C21.1475 7.78393 23.0874 12.0871 23.4768 17.0547C23.7639 21.8945 21.385 26.2012 15.0002 26.2012C9.00581 26.2012 4.58214 22.0176 5.18367 15.3867C5.53317 11.5341 6.99902 8.57354 8.21207 6.76051C8.643 6.11645 9.55516 6.10749 10.06 6.69539L11.0193 7.81251C11.1061 7.91354 11.2657 7.90285 11.3374 7.79063Z" fill="url(#paint21_radial_13419_45224)"/>
<path d="M11.3374 7.79063C12.6162 5.78973 13.3957 3.93662 13.8222 2.58543C14.0109 1.98759 14.781 1.74149 15.2357 2.17306C21.1475 7.78393 23.0874 12.0871 23.4768 17.0547C23.7639 21.8945 21.385 26.2012 15.0002 26.2012C9.00581 26.2012 4.58214 22.0176 5.18367 15.3867C5.53317 11.5341 6.99902 8.57354 8.21207 6.76051C8.643 6.11645 9.55516 6.10749 10.06 6.69539L11.0193 7.81251C11.1061 7.91354 11.2657 7.90285 11.3374 7.79063Z" fill="url(#paint22_radial_13419_45224)"/>
<path d="M11.3374 7.79063C12.6162 5.78973 13.3957 3.93662 13.8222 2.58543C14.0109 1.98759 14.781 1.74149 15.2357 2.17306C21.1475 7.78393 23.0874 12.0871 23.4768 17.0547C23.7639 21.8945 21.385 26.2012 15.0002 26.2012C9.00581 26.2012 4.58214 22.0176 5.18367 15.3867C5.53317 11.5341 6.99902 8.57354 8.21207 6.76051C8.643 6.11645 9.55516 6.10749 10.06 6.69539L11.0193 7.81251C11.1061 7.91354 11.2657 7.90285 11.3374 7.79063Z" fill="url(#paint23_radial_13419_45224)" fill-opacity="0.8"/>
<path d="M11.3374 7.79063C12.6162 5.78973 13.3957 3.93662 13.8222 2.58543C14.0109 1.98759 14.781 1.74149 15.2357 2.17306C21.1475 7.78393 23.0874 12.0871 23.4768 17.0547C23.7639 21.8945 21.385 26.2012 15.0002 26.2012C9.00581 26.2012 4.58214 22.0176 5.18367 15.3867C5.53317 11.5341 6.99902 8.57354 8.21207 6.76051C8.643 6.11645 9.55516 6.10749 10.06 6.69539L11.0193 7.81251C11.1061 7.91354 11.2657 7.90285 11.3374 7.79063Z" fill="url(#paint24_radial_13419_45224)" fill-opacity="0.2"/>
<path d="M11.3374 7.79063C12.6162 5.78973 13.3957 3.93662 13.8222 2.58543C14.0109 1.98759 14.781 1.74149 15.2357 2.17306C21.1475 7.78393 23.0874 12.0871 23.4768 17.0547C23.7639 21.8945 21.385 26.2012 15.0002 26.2012C9.00581 26.2012 4.58214 22.0176 5.18367 15.3867C5.53317 11.5341 6.99902 8.57354 8.21207 6.76051C8.643 6.11645 9.55516 6.10749 10.06 6.69539L11.0193 7.81251C11.1061 7.91354 11.2657 7.90285 11.3374 7.79063Z" fill="url(#paint25_radial_13419_45224)" fill-opacity="0.2"/>
<path d="M11.3374 7.79063C12.6162 5.78973 13.3957 3.93662 13.8222 2.58543C14.0109 1.98759 14.781 1.74149 15.2357 2.17306C21.1475 7.78393 23.0874 12.0871 23.4768 17.0547C23.7639 21.8945 21.385 26.2012 15.0002 26.2012C9.00581 26.2012 4.58214 22.0176 5.18367 15.3867C5.53317 11.5341 6.99902 8.57354 8.21207 6.76051C8.643 6.11645 9.55516 6.10749 10.06 6.69539L11.0193 7.81251C11.1061 7.91354 11.2657 7.90285 11.3374 7.79063Z" fill="url(#paint26_radial_13419_45224)"/>
<path d="M11.3374 7.79063C12.6162 5.78973 13.3957 3.93662 13.8222 2.58543C14.0109 1.98759 14.781 1.74149 15.2357 2.17306C21.1475 7.78393 23.0874 12.0871 23.4768 17.0547C23.7639 21.8945 21.385 26.2012 15.0002 26.2012C9.00581 26.2012 4.58214 22.0176 5.18367 15.3867C5.53317 11.5341 6.99902 8.57354 8.21207 6.76051C8.643 6.11645 9.55516 6.10749 10.06 6.69539L11.0193 7.81251C11.1061 7.91354 11.2657 7.90285 11.3374 7.79063Z" fill="url(#paint27_radial_13419_45224)"/>
<path d="M11.3374 7.79063C12.6162 5.78973 13.3957 3.93662 13.8222 2.58543C14.0109 1.98759 14.781 1.74149 15.2357 2.17306C21.1475 7.78393 23.0874 12.0871 23.4768 17.0547C23.7639 21.8945 21.385 26.2012 15.0002 26.2012C9.00581 26.2012 4.58214 22.0176 5.18367 15.3867C5.53317 11.5341 6.99902 8.57354 8.21207 6.76051C8.643 6.11645 9.55516 6.10749 10.06 6.69539L11.0193 7.81251C11.1061 7.91354 11.2657 7.90285 11.3374 7.79063Z" fill="url(#paint28_radial_13419_45224)"/>
<path d="M11.3374 7.79063C12.6162 5.78973 13.3957 3.93662 13.8222 2.58543C14.0109 1.98759 14.781 1.74149 15.2357 2.17306C21.1475 7.78393 23.0874 12.0871 23.4768 17.0547C23.7639 21.8945 21.385 26.2012 15.0002 26.2012C9.00581 26.2012 4.58214 22.0176 5.18367 15.3867C5.53317 11.5341 6.99902 8.57354 8.21207 6.76051C8.643 6.11645 9.55516 6.10749 10.06 6.69539L11.0193 7.81251C11.1061 7.91354 11.2657 7.90285 11.3374 7.79063Z" fill="url(#paint29_radial_13419_45224)"/>
<path d="M9.23899 17.3923C10.3525 14.7424 12.6105 11.8165 14.1864 10.1653C14.692 9.63552 15.5151 9.62433 16.0498 10.1247C18.9863 12.8727 19.8846 15.3682 20.6483 18.2673C21.4532 21.3225 20.6483 26.2452 14.5919 26.2452C9.37626 26.2452 7.5695 21.3652 9.23899 17.3923Z" fill="url(#paint30_radial_13419_45224)"/>
<path d="M9.23899 17.3923C10.3525 14.7424 12.6105 11.8165 14.1864 10.1653C14.692 9.63552 15.5151 9.62433 16.0498 10.1247C18.9863 12.8727 19.8846 15.3682 20.6483 18.2673C21.4532 21.3225 20.6483 26.2452 14.5919 26.2452C9.37626 26.2452 7.5695 21.3652 9.23899 17.3923Z" fill="url(#paint31_radial_13419_45224)"/>
<path d="M9.23899 17.3923C10.3525 14.7424 12.6105 11.8165 14.1864 10.1653C14.692 9.63552 15.5151 9.62433 16.0498 10.1247C18.9863 12.8727 19.8846 15.3682 20.6483 18.2673C21.4532 21.3225 20.6483 26.2452 14.5919 26.2452C9.37626 26.2452 7.5695 21.3652 9.23899 17.3923Z" fill="url(#paint32_radial_13419_45224)"/>
<path d="M9.23899 17.3923C10.3525 14.7424 12.6105 11.8165 14.1864 10.1653C14.692 9.63552 15.5151 9.62433 16.0498 10.1247C18.9863 12.8727 19.8846 15.3682 20.6483 18.2673C21.4532 21.3225 20.6483 26.2452 14.5919 26.2452C9.37626 26.2452 7.5695 21.3652 9.23899 17.3923Z" fill="url(#paint33_radial_13419_45224)"/>
<path d="M9.23899 17.3923C10.3525 14.7424 12.6105 11.8165 14.1864 10.1653C14.692 9.63552 15.5151 9.62433 16.0498 10.1247C18.9863 12.8727 19.8846 15.3682 20.6483 18.2673C21.4532 21.3225 20.6483 26.2452 14.5919 26.2452C9.37626 26.2452 7.5695 21.3652 9.23899 17.3923Z" fill="url(#paint34_linear_13419_45224)"/>
<path d="M9.23899 17.3923C10.3525 14.7424 12.6105 11.8165 14.1864 10.1653C14.692 9.63552 15.5151 9.62433 16.0498 10.1247C18.9863 12.8727 19.8846 15.3682 20.6483 18.2673C21.4532 21.3225 20.6483 26.2452 14.5919 26.2452C9.37626 26.2452 7.5695 21.3652 9.23899 17.3923Z" fill="url(#paint35_radial_13419_45224)"/>
<path d="M9.23899 17.3923C10.3525 14.7424 12.6105 11.8165 14.1864 10.1653C14.692 9.63552 15.5151 9.62433 16.0498 10.1247C18.9863 12.8727 19.8846 15.3682 20.6483 18.2673C21.4532 21.3225 20.6483 26.2452 14.5919 26.2452C9.37626 26.2452 7.5695 21.3652 9.23899 17.3923Z" fill="url(#paint36_radial_13419_45224)"/>
<path d="M9.23899 17.3923C10.3525 14.7424 12.6105 11.8165 14.1864 10.1653C14.692 9.63552 15.5151 9.62433 16.0498 10.1247C18.9863 12.8727 19.8846 15.3682 20.6483 18.2673C21.4532 21.3225 20.6483 26.2452 14.5919 26.2452C9.37626 26.2452 7.5695 21.3652 9.23899 17.3923Z" fill="url(#paint37_radial_13419_45224)" fill-opacity="0.7"/>
<defs>
<radialGradient id="paint0_radial_13419_45224" cx="0" cy="0" r="1" gradientUnits="userSpaceOnUse" gradientTransform="translate(21.3356 17.2552) rotate(-179.474) scale(14.9614 22.5628)">
<stop stop-color="#FF953D"/>
<stop offset="1" stop-color="#FF5141"/>
</radialGradient>
<radialGradient id="paint1_radial_13419_45224" cx="0" cy="0" r="1" gradientUnits="userSpaceOnUse" gradientTransform="translate(9.40949 13.6982) rotate(-157.937) scale(9.0511 15.6183)">
<stop stop-color="#CE5327"/>
<stop offset="1" stop-color="#CE5327" stop-opacity="0"/>
</radialGradient>
<radialGradient id="paint2_radial_13419_45224" cx="0" cy="0" r="1" gradientUnits="userSpaceOnUse" gradientTransform="translate(7.23568 17.4628) rotate(15.4786) scale(1.84029 6.70547)">
<stop stop-color="#F38758"/>
<stop offset="0.363071" stop-color="#F38758" stop-opacity="0.703001"/>
<stop offset="0.71349" stop-color="#F38758" stop-opacity="0.210142"/>
<stop offset="1" stop-color="#F38758" stop-opacity="0"/>
</radialGradient>
<linearGradient id="paint3_linear_13419_45224" x1="16.3779" y1="26.2012" x2="16.3779" y2="21.74" gradientUnits="userSpaceOnUse">
<stop stop-color="#FF7583"/>
<stop offset="1" stop-color="#FF7583" stop-opacity="0"/>
</linearGradient>
<radialGradient id="paint4_radial_13419_45224" cx="0" cy="0" r="1" gradientUnits="userSpaceOnUse" gradientTransform="translate(4.67113 12.5927) rotate(24.0149) scale(2.71657 22.4867)">
<stop stop-color="#FFAA7B"/>
<stop offset="0.845295" stop-color="#FFAA7B" stop-opacity="0.0923529"/>
<stop offset="1" stop-color="#FFAA7B" stop-opacity="0"/>
</radialGradient>
<radialGradient id="paint5_radial_13419_45224" cx="0" cy="0" r="1" gradientUnits="userSpaceOnUse" gradientTransform="translate(8.48014 5.46978) rotate(77.3196) scale(3.36031 4.19289)">
<stop stop-color="#FF5E47"/>
<stop offset="1" stop-color="#FF5E47" stop-opacity="0"/>
</radialGradient>
<radialGradient id="paint6_radial_13419_45224" cx="0" cy="0" r="1" gradientUnits="userSpaceOnUse" gradientTransform="translate(14.709 1.19531) rotate(87.8819) scale(8.87022 8.21031)">
<stop stop-color="#FF2F3C"/>
<stop offset="1" stop-color="#FF2F3C" stop-opacity="0"/>
</radialGradient>
<radialGradient id="paint7_radial_13419_45224" cx="0" cy="0" r="1" gradientUnits="userSpaceOnUse" gradientTransform="translate(10.9035 7.66918) rotate(152.832) scale(1.09028 0.463463)">
<stop stop-color="#FFA682"/>
<stop offset="0.686162" stop-color="#FFA682" stop-opacity="0.266248"/>
<stop offset="0.821066" stop-color="#FFA682" stop-opacity="0.117186"/>
<stop offset="1" stop-color="#FFA682" stop-opacity="0"/>
</radialGradient>
<radialGradient id="paint8_radial_13419_45224" cx="0" cy="0" r="1" gradientUnits="userSpaceOnUse" gradientTransform="translate(10.7725 7.66476) rotate(114.808) scale(3.38863 0.335561)">
<stop stop-color="#FFA682"/>
<stop offset="0.701678" stop-color="#FFA682" stop-opacity="0.199672"/>
<stop offset="1" stop-color="#FFA682" stop-opacity="0"/>
</radialGradient>
<radialGradient id="paint9_radial_13419_45224" cx="0" cy="0" r="1" gradientUnits="userSpaceOnUse" gradientTransform="translate(7.88179 8.76039) rotate(20.9596) scale(0.781805 3.70808)">
<stop stop-color="#FF815B"/>
<stop offset="0.24804" stop-color="#FF815B" stop-opacity="0.869521"/>
<stop offset="0.815487" stop-color="#FF815B" stop-opacity="0.150116"/>
<stop offset="1" stop-color="#FF815B" stop-opacity="0"/>
</radialGradient>
<radialGradient id="paint10_radial_13419_45224" cx="0" cy="0" r="1" gradientUnits="userSpaceOnUse" gradientTransform="translate(8.47809 7.63864) rotate(16.4224) scale(0.959493 3.1734)">
<stop stop-color="#FF815B"/>
<stop offset="0.24804" stop-color="#FF815B" stop-opacity="0.869521"/>
<stop offset="0.822875" stop-color="#FF815B" stop-opacity="0.150116"/>
<stop offset="1" stop-color="#FF815B" stop-opacity="0"/>
</radialGradient>
<radialGradient id="paint11_radial_13419_45224" cx="0" cy="0" r="1" gradientUnits="userSpaceOnUse" gradientTransform="translate(9.66347 5.92841) rotate(99.2111) scale(0.955928 3.80892)">
<stop stop-color="#FF2F3C"/>
<stop offset="0.739036" stop-color="#FF2F3C" stop-opacity="0.119038"/>
<stop offset="1" stop-color="#FF2F3C" stop-opacity="0"/>
</radialGradient>
<radialGradient id="paint12_radial_13419_45224" cx="0" cy="0" r="1" gradientUnits="userSpaceOnUse" gradientTransform="translate(10.463 7.09565) rotate(105.173) scale(5.10307 1.34419)">
<stop stop-color="#FF2F3C" stop-opacity="0.72"/>
<stop offset="0.739036" stop-color="#FF2F3C" stop-opacity="0.119038"/>
<stop offset="1" stop-color="#FF2F3C" stop-opacity="0"/>
</radialGradient>
<radialGradient id="paint13_radial_13419_45224" cx="0" cy="0" r="1" gradientUnits="userSpaceOnUse" gradientTransform="translate(10.6695 11.5843) rotate(31.1593) scale(2.42836 10.9877)">
<stop stop-color="#CA0B4A"/>
<stop offset="0.680964" stop-color="#CA0B4A" stop-opacity="0.54"/>
<stop offset="1" stop-color="#CA0B4A" stop-opacity="0"/>
</radialGradient>
<radialGradient id="paint14_radial_13419_45224" cx="0" cy="0" r="1" gradientUnits="userSpaceOnUse" gradientTransform="translate(12.6571 5.63798) rotate(23.7601) scale(1.97412 7.19309)">
<stop stop-color="#F38758"/>
<stop offset="0.363071" stop-color="#F38758" stop-opacity="0.703001"/>
<stop offset="0.71349" stop-color="#F38758" stop-opacity="0.210142"/>
<stop offset="1" stop-color="#F38758" stop-opacity="0"/>
</radialGradient>
<radialGradient id="paint15_radial_13419_45224" cx="0" cy="0" r="1" gradientUnits="userSpaceOnUse" gradientTransform="translate(11.0685 9.4607) rotate(28.8359) scale(1.46215 5.32764)">
<stop stop-color="#F38758" stop-opacity="0.86"/>
<stop offset="0.262244" stop-color="#F38758" stop-opacity="0.703001"/>
<stop offset="0.675284" stop-color="#F38758" stop-opacity="0.210142"/>
<stop offset="0.861713" stop-color="#F38758" stop-opacity="0.0623553"/>
<stop offset="1" stop-color="#F38758" stop-opacity="0"/>
</radialGradient>
<radialGradient id="paint16_radial_13419_45224" cx="0" cy="0" r="1" gradientUnits="userSpaceOnUse" gradientTransform="translate(8.78906 13.6085) rotate(24.6769) scale(2.15399 7.84846)">
<stop stop-color="#F38758"/>
<stop offset="0.363071" stop-color="#F38758" stop-opacity="0.703001"/>
<stop offset="0.71349" stop-color="#F38758" stop-opacity="0.210142"/>
<stop offset="1" stop-color="#F38758" stop-opacity="0"/>
</radialGradient>
<radialGradient id="paint17_radial_13419_45224" cx="0" cy="0" r="1" gradientUnits="userSpaceOnUse" gradientTransform="translate(11.1941 19.3207) rotate(-160.017) scale(5.08827 10.3696)">
<stop stop-color="#CE5327"/>
<stop offset="0.844833" stop-color="#CE5327" stop-opacity="0.434204"/>
<stop offset="0.945717" stop-color="#CE5327" stop-opacity="0.12821"/>
<stop offset="1" stop-color="#CE5327" stop-opacity="0"/>
</radialGradient>
<radialGradient id="paint18_radial_13419_45224" cx="0" cy="0" r="1" gradientUnits="userSpaceOnUse" gradientTransform="translate(14.6425 5.1212) rotate(-176.122) scale(1.02107 4.08188)">
<stop stop-color="#CE5327" stop-opacity="0.65"/>
<stop offset="0.481357" stop-color="#CE5327" stop-opacity="0.434204"/>
<stop offset="0.738276" stop-color="#CE5327" stop-opacity="0.12821"/>
<stop offset="1" stop-color="#CE5327" stop-opacity="0"/>
</radialGradient>
<radialGradient id="paint19_radial_13419_45224" cx="0" cy="0" r="1" gradientUnits="userSpaceOnUse" gradientTransform="translate(14.2354 6.97664) rotate(-164.148) scale(1.04417 4.17422)">
<stop stop-color="#CE5327" stop-opacity="0.65"/>
<stop offset="0.481357" stop-color="#CE5327" stop-opacity="0.434204"/>
<stop offset="0.738276" stop-color="#CE5327" stop-opacity="0.12821"/>
<stop offset="1" stop-color="#CE5327" stop-opacity="0"/>
</radialGradient>
<radialGradient id="paint20_radial_13419_45224" cx="0" cy="0" r="1" gradientUnits="userSpaceOnUse" gradientTransform="translate(7.91439 12.0011) rotate(-154.011) scale(0.643949 5.4284)">
<stop stop-color="#CE5327" stop-opacity="0.87"/>
<stop offset="0.493785" stop-color="#CE5327" stop-opacity="0.53"/>
<stop offset="0.852631" stop-color="#CE5327" stop-opacity="0.123929"/>
<stop offset="1" stop-color="#CE5327" stop-opacity="0"/>
</radialGradient>
<radialGradient id="paint21_radial_13419_45224" cx="0" cy="0" r="1" gradientUnits="userSpaceOnUse" gradientTransform="translate(10.5766 8.96204) rotate(-145.909) scale(0.273346 1.69272)">
<stop stop-color="#FF5E47"/>
<stop offset="1" stop-color="#FF5E47" stop-opacity="0"/>
</radialGradient>
<radialGradient id="paint22_radial_13419_45224" cx="0" cy="0" r="1" gradientUnits="userSpaceOnUse" gradientTransform="translate(7.16381 7.76694) rotate(29.1817) scale(1.18041 7.3098)">
<stop offset="0.25679" stop-color="#FF5E47"/>
<stop offset="0.779632" stop-color="#FF5E47" stop-opacity="0.216117"/>
<stop offset="1" stop-color="#FF5E47" stop-opacity="0"/>
</radialGradient>
<radialGradient id="paint23_radial_13419_45224" cx="0" cy="0" r="1" gradientUnits="userSpaceOnUse" gradientTransform="translate(11.053 8.01648) rotate(-155.855) scale(0.379043 1.86115)">
<stop stop-color="#FF2F3C"/>
<stop offset="0.361378" stop-color="#FF2F3C" stop-opacity="0.44772"/>
<stop offset="0.739036" stop-color="#FF2F3C" stop-opacity="0.119038"/>
<stop offset="1" stop-color="#FF2F3C" stop-opacity="0"/>
</radialGradient>
<radialGradient id="paint24_radial_13419_45224" cx="0" cy="0" r="1" gradientUnits="userSpaceOnUse" gradientTransform="translate(14.7032 5.14968) rotate(-177.99) scale(1.5716 8.30103)">
<stop stop-color="#CA0B4A"/>
<stop offset="0.680964" stop-color="#CA0B4A" stop-opacity="0.183465"/>
<stop offset="1" stop-color="#CA0B4A" stop-opacity="0"/>
</radialGradient>
<radialGradient id="paint25_radial_13419_45224" cx="0" cy="0" r="1" gradientUnits="userSpaceOnUse" gradientTransform="translate(14.736 2.90607) rotate(-180) scale(0.833578 4.40288)">
<stop stop-color="#CA0B4A"/>
<stop offset="0.680964" stop-color="#CA0B4A" stop-opacity="0.183465"/>
<stop offset="1" stop-color="#CA0B4A" stop-opacity="0"/>
</radialGradient>
<radialGradient id="paint26_radial_13419_45224" cx="0" cy="0" r="1" gradientUnits="userSpaceOnUse" gradientTransform="translate(7.17491 15.7745) rotate(22.249) scale(0.592038 3.72093)">
<stop stop-color="#F38758"/>
<stop offset="0.277249" stop-color="#F38758" stop-opacity="0.771452"/>
<stop offset="0.585568" stop-color="#F38758" stop-opacity="0.288453"/>
<stop offset="1" stop-color="#F38758" stop-opacity="0"/>
</radialGradient>
<radialGradient id="paint27_radial_13419_45224" cx="0" cy="0" r="1" gradientUnits="userSpaceOnUse" gradientTransform="translate(8.42479 13.4816) rotate(29.7449) scale(0.531764 3.34212)">
<stop stop-color="#F38758"/>
<stop offset="0.277249" stop-color="#F38758" stop-opacity="0.771452"/>
<stop offset="0.585568" stop-color="#F38758" stop-opacity="0.288453"/>
<stop offset="1" stop-color="#F38758" stop-opacity="0"/>
</radialGradient>
<radialGradient id="paint28_radial_13419_45224" cx="0" cy="0" r="1" gradientUnits="userSpaceOnUse" gradientTransform="translate(9.77697 11.4022) rotate(37.4054) scale(0.486956 3.0605)">
<stop stop-color="#F38758"/>
<stop offset="0.277249" stop-color="#F38758" stop-opacity="0.771452"/>
<stop offset="0.585568" stop-color="#F38758" stop-opacity="0.288453"/>
<stop offset="1" stop-color="#F38758" stop-opacity="0"/>
</radialGradient>
<radialGradient id="paint29_radial_13419_45224" cx="0" cy="0" r="1" gradientUnits="userSpaceOnUse" gradientTransform="translate(11.4268 15.0965) rotate(-151.033) scale(3.72715 8.10992)">
<stop stop-color="#CE5327"/>
<stop offset="0.638398" stop-color="#CE5327" stop-opacity="0.417024"/>
<stop offset="0.913732" stop-color="#CE5327" stop-opacity="0.123929"/>
<stop offset="1" stop-color="#CE5327" stop-opacity="0"/>
</radialGradient>
<radialGradient id="paint30_radial_13419_45224" cx="0" cy="0" r="1" gradientUnits="userSpaceOnUse" gradientTransform="translate(18.8871 21.3291) rotate(-168.558) scale(8.77547 10.9279)">
<stop stop-color="#FFDA2F"/>
<stop offset="0.352487" stop-color="#FFC634"/>
<stop offset="1" stop-color="#FF8E41"/>
</radialGradient>
<radialGradient id="paint31_radial_13419_45224" cx="0" cy="0" r="1" gradientUnits="userSpaceOnUse" gradientTransform="translate(17.5961 19.7138) rotate(-174.878) scale(8.99533 22.0245)">
<stop offset="0.627719" stop-color="#D7812D" stop-opacity="0"/>
<stop offset="0.728983" stop-color="#D7812D" stop-opacity="0.137125"/>
<stop offset="0.855913" stop-color="#D7812D" stop-opacity="0.404199"/>
<stop offset="1" stop-color="#D7812D"/>
</radialGradient>
<radialGradient id="paint32_radial_13419_45224" cx="0" cy="0" r="1" gradientUnits="userSpaceOnUse" gradientTransform="translate(23.783 24.9553) rotate(-135.822) scale(17.564 20.7114)">
<stop stop-color="#D7812D" stop-opacity="0"/>
<stop offset="0.688904" stop-color="#D7812D" stop-opacity="0"/>
<stop offset="0.767023" stop-color="#D7812D" stop-opacity="0.103983"/>
<stop offset="0.837368" stop-color="#D7812D" stop-opacity="0.404199"/>
<stop offset="0.951078" stop-color="#D7812D"/>
</radialGradient>
<radialGradient id="paint33_radial_13419_45224" cx="0" cy="0" r="1" gradientUnits="userSpaceOnUse" gradientTransform="translate(11.1843 7.51854) rotate(69.0442) scale(12.3747 10.7519)">
<stop offset="0.152609" stop-color="#FD5639"/>
<stop offset="0.835743" stop-color="#FE5534" stop-opacity="0.0858814"/>
<stop offset="1" stop-color="#FE5533" stop-opacity="0"/>
</radialGradient>
<linearGradient id="paint34_linear_13419_45224" x1="14.7729" y1="9.28564" x2="14.7729" y2="12.477" gradientUnits="userSpaceOnUse">
<stop stop-color="#F95131"/>
<stop offset="1" stop-color="#F95131" stop-opacity="0"/>
</linearGradient>
<radialGradient id="paint35_radial_13419_45224" cx="0" cy="0" r="1" gradientUnits="userSpaceOnUse" gradientTransform="translate(20.4456 16.452) rotate(143.063) scale(14.0477 10.1652)">
<stop offset="0.725303" stop-color="#F18A52" stop-opacity="0"/>
<stop offset="0.816284" stop-color="#F18A52" stop-opacity="0.230883"/>
<stop offset="1" stop-color="#F18A52"/>
</radialGradient>
<radialGradient id="paint36_radial_13419_45224" cx="0" cy="0" r="1" gradientUnits="userSpaceOnUse" gradientTransform="translate(21.4455 20.0138) rotate(-148.858) scale(12.058 19.8596)">
<stop stop-color="#F39D5D" stop-opacity="0"/>
<stop offset="0.928937" stop-color="#F39D5D" stop-opacity="0"/>
<stop offset="0.938719" stop-color="#F39D5D" stop-opacity="0.0581965"/>
<stop offset="0.950197" stop-color="#F39D5D" stop-opacity="0.180239"/>
<stop offset="0.983595" stop-color="#F39D5D"/>
</radialGradient>
<radialGradient id="paint37_radial_13419_45224" cx="0" cy="0" r="1" gradientUnits="userSpaceOnUse" gradientTransform="translate(23.7388 20.6559) rotate(-178.108) scale(15.2819 15.4885)">
<stop stop-color="#F39D5D" stop-opacity="0"/>
<stop offset="0.939537" stop-color="#F39D5D" stop-opacity="0"/>
<stop offset="0.951154" stop-color="#F39D5D" stop-opacity="0.0581965"/>
<stop offset="0.96296" stop-color="#F39D5D" stop-opacity="0.180239"/>
<stop offset="0.980969" stop-color="#F39D5D"/>
</radialGradient>
</defs>
</svg>
