<svg width="24" height="25" viewBox="0 0 24 25" fill="none" xmlns="http://www.w3.org/2000/svg">
<g id="Linkedin">
<rect id="linkedin" x="2.5" y="3" width="19" height="19" rx="2" fill="#0077B5"/>
<path id="&#240;&#159;&#142;&#168; Color" fill-rule="evenodd" clip-rule="evenodd" d="M8.37505 7.18756C8.37505 6.25276 7.61323 5.49414 6.67681 5.49414C5.73624 5.49414 4.97754 6.25276 4.97754 7.18756C4.97754 8.1234 5.73624 8.88201 6.67681 8.88201C7.61323 8.88201 8.37505 8.1234 8.37505 7.18756ZM15.5981 9.93247C18.5643 9.93247 19.112 11.8777 19.112 14.4085V19.5624H16.1832L16.1823 14.7463C16.1723 13.7029 16.0532 12.5016 14.6616 12.5016C13.137 12.5016 12.9042 13.6893 12.9042 14.9153V19.5624H9.97954V10.1657H12.7867V11.4497H12.8273C13.217 10.7108 14.1732 9.93247 15.5981 9.93247ZM8.14266 10.1658V19.5625H5.21076V10.1658H8.14266Z" fill="white"/>
</g>
</svg>
