<svg width="29" height="28" viewBox="0 0 29 28" fill="none" xmlns="http://www.w3.org/2000/svg">
<circle cx="14.2178" cy="24.5889" r="1.55176" fill="url(#paint0_radial_13419_45220)"/>
<rect x="11.2842" y="19.4004" width="5.93359" height="5.87891" rx="1.25" fill="url(#paint1_linear_13419_45220)"/>
<rect x="11.2842" y="19.4004" width="5.93359" height="5.87891" rx="1.25" fill="url(#paint2_linear_13419_45220)"/>
<rect x="11.2842" y="19.4004" width="5.93359" height="5.87891" rx="1.25" fill="url(#paint3_radial_13419_45220)"/>
<rect x="11.2842" y="19.4004" width="5.93359" height="5.87891" rx="1.25" fill="url(#paint4_linear_13419_45220)"/>
<rect x="11.2842" y="19.4004" width="5.93359" height="5.87891" rx="1.25" fill="url(#paint5_radial_13419_45220)"/>
<rect x="11.2842" y="19.4004" width="5.93359" height="5.87891" rx="1.25" fill="url(#paint6_radial_13419_45220)"/>
<rect x="11.2842" y="19.4004" width="5.93359" height="5.87891" rx="1.25" fill="url(#paint7_radial_13419_45220)"/>
<path d="M14.1294 20.0974C14.1459 20.0974 14.1617 20.0975 14.1768 20.0975C14.6626 20.0953 15.7815 20.0765 16.23 19.9949C16.7112 19.9074 16.7734 19.6675 16.8589 19.2908C17.386 16.9691 18.2698 16.0765 18.8611 15.4793C18.9522 15.3873 19.0365 15.3022 19.1113 15.22C19.3679 14.9384 19.5901 14.6904 19.7597 14.499C21.0361 13.1443 21.8184 11.3188 21.8184 9.31055C21.8184 5.1312 18.4303 1.74316 14.251 1.74316C10.0716 1.74316 6.68359 5.1312 6.68359 9.31055C6.68359 11.2943 7.4469 13.0997 8.69582 14.4492C8.87019 14.6465 9.10878 14.9133 9.3882 15.22C9.43679 15.2734 9.48932 15.3279 9.54515 15.3848C9.57533 15.4156 9.60646 15.447 9.63845 15.4793C10.2297 16.0765 11.1135 16.9691 11.6406 19.2908C11.7262 19.6675 11.7883 19.9074 12.2695 19.9949C12.717 20.0763 13.6228 20.095 14.0811 20.0972C14.0961 20.0972 14.1122 20.0974 14.1294 20.0974Z" fill="url(#paint8_radial_13419_45220)"/>
<path d="M14.1294 20.0974C14.1459 20.0974 14.1617 20.0975 14.1768 20.0975C14.6626 20.0953 15.7815 20.0765 16.23 19.9949C16.7112 19.9074 16.7734 19.6675 16.8589 19.2908C17.386 16.9691 18.2698 16.0765 18.8611 15.4793C18.9522 15.3873 19.0365 15.3022 19.1113 15.22C19.3679 14.9384 19.5901 14.6904 19.7597 14.499C21.0361 13.1443 21.8184 11.3188 21.8184 9.31055C21.8184 5.1312 18.4303 1.74316 14.251 1.74316C10.0716 1.74316 6.68359 5.1312 6.68359 9.31055C6.68359 11.2943 7.4469 13.0997 8.69582 14.4492C8.87019 14.6465 9.10878 14.9133 9.3882 15.22C9.43679 15.2734 9.48932 15.3279 9.54515 15.3848C9.57533 15.4156 9.60646 15.447 9.63845 15.4793C10.2297 16.0765 11.1135 16.9691 11.6406 19.2908C11.7262 19.6675 11.7883 19.9074 12.2695 19.9949C12.717 20.0763 13.6228 20.095 14.0811 20.0972C14.0961 20.0972 14.1122 20.0974 14.1294 20.0974Z" fill="url(#paint9_radial_13419_45220)"/>
<circle cx="15.6123" cy="6.08398" r="2.91211" fill="url(#paint10_linear_13419_45220)"/>
<path d="M13.877 20.0955C13.8463 18.1949 13.6949 16.9433 13.4643 16.0722C13.1986 15.068 12.8269 14.5676 12.4336 14.1708L12.4286 14.1658L12.4235 14.161C11.9198 13.6844 11.6064 13.011 11.6064 12.2637C11.6064 10.8215 12.7756 9.65234 14.2178 9.65234C15.66 9.65234 16.8291 10.8215 16.8291 12.2637C16.8291 13.011 16.5157 13.6844 16.012 14.161L16.0069 14.1658L16.0019 14.1708C15.6157 14.5605 15.239 15.0281 14.9701 16.0239C14.7374 16.8854 14.5851 18.1414 14.5549 20.0937C14.8187 20.0894 15.1344 20.0813 15.4304 20.067C15.4617 18.17 15.6106 17.0082 15.8148 16.252C16.0361 15.4327 16.3205 15.093 16.6187 14.7915C17.2867 14.1569 17.7041 13.2587 17.7041 12.2637C17.7041 10.3382 16.1432 8.77734 14.2178 8.77734C12.2923 8.77734 10.7314 10.3382 10.7314 12.2637C10.7314 13.2586 11.1488 14.1568 11.8168 14.7915C12.1081 15.0863 12.3957 15.4545 12.6185 16.296C12.8219 17.0649 12.9697 18.2246 13.0014 20.0675C13.3045 20.0843 13.624 20.0922 13.877 20.0955Z" fill="#FFAD55"/>
<path d="M15.1021 19.896C15.1021 15.7213 15.7417 15.0555 16.4279 14.3631C17.0153 13.8073 17.3818 13.0204 17.3818 12.1479C17.3818 10.4641 16.0168 9.09912 14.333 9.09912C12.6492 9.09912 11.2842 10.4641 11.2842 12.1479C11.2842 13.0204 11.6507 13.8073 12.2381 14.3631C12.9243 15.0555 13.5605 16.2539 13.5605 19.896" stroke="url(#paint11_linear_13419_45220)" stroke-width="0.25"/>
<rect x="10.5566" y="24.0303" width="7.28026" height="0.96409" rx="0.482045" transform="rotate(-8.90494 10.5566 24.0303)" fill="url(#paint12_linear_13419_45220)"/>
<rect x="10.5566" y="24.0303" width="7.28026" height="0.96409" rx="0.482045" transform="rotate(-8.90494 10.5566 24.0303)" fill="url(#paint13_linear_13419_45220)"/>
<rect x="10.5566" y="24.0303" width="7.28026" height="0.96409" rx="0.482045" transform="rotate(-8.90494 10.5566 24.0303)" fill="url(#paint14_linear_13419_45220)"/>
<rect x="10.5566" y="24.0303" width="7.28026" height="0.96409" rx="0.482045" transform="rotate(-8.90494 10.5566 24.0303)" fill="url(#paint15_radial_13419_45220)"/>
<rect x="10.5566" y="21.9507" width="7.28026" height="0.96409" rx="0.482045" transform="rotate(-8.90494 10.5566 21.9507)" fill="url(#paint16_linear_13419_45220)"/>
<rect x="10.5566" y="21.9507" width="7.28026" height="0.96409" rx="0.482045" transform="rotate(-8.90494 10.5566 21.9507)" fill="url(#paint17_linear_13419_45220)"/>
<rect x="10.5566" y="21.9507" width="7.28026" height="0.96409" rx="0.482045" transform="rotate(-8.90494 10.5566 21.9507)" fill="url(#paint18_linear_13419_45220)"/>
<rect x="10.5566" y="21.9507" width="7.28026" height="0.96409" rx="0.482045" transform="rotate(-8.90494 10.5566 21.9507)" fill="url(#paint19_radial_13419_45220)"/>
<defs>
<radialGradient id="paint0_radial_13419_45220" cx="0" cy="0" r="1" gradientUnits="userSpaceOnUse" gradientTransform="translate(14.6279 25.4707) rotate(96.6544) scale(0.825876 1.91288)">
<stop offset="0.267752" stop-color="#AC90C6"/>
<stop offset="1" stop-color="#8E6AAA"/>
</radialGradient>
<linearGradient id="paint1_linear_13419_45220" x1="17.2178" y1="22.5763" x2="11.2842" y2="22.5763" gradientUnits="userSpaceOnUse">
<stop stop-color="#CDC2D1"/>
<stop offset="1" stop-color="#947C8D"/>
</linearGradient>
<linearGradient id="paint2_linear_13419_45220" x1="10.9912" y1="23.0234" x2="12.4404" y2="23.0234" gradientUnits="userSpaceOnUse">
<stop stop-color="#8A7B88"/>
<stop offset="1" stop-color="#8A7B88" stop-opacity="0"/>
</linearGradient>
<radialGradient id="paint3_radial_13419_45220" cx="0" cy="0" r="1" gradientUnits="userSpaceOnUse" gradientTransform="translate(15.4746 19.8103) rotate(88.6361) scale(0.72176 3.21337)">
<stop offset="0.228769" stop-color="#EDE2EB"/>
<stop offset="1" stop-color="#C8BCCB" stop-opacity="0"/>
</radialGradient>
<linearGradient id="paint4_linear_13419_45220" x1="15.6123" y1="25.2793" x2="15.6123" y2="24.1719" gradientUnits="userSpaceOnUse">
<stop stop-color="#7E5F9E"/>
<stop offset="1" stop-color="#7E5F9E" stop-opacity="0"/>
</linearGradient>
<radialGradient id="paint5_radial_13419_45220" cx="0" cy="0" r="1" gradientUnits="userSpaceOnUse" gradientTransform="translate(16.0581 20.1612) rotate(90) scale(0.741017 1.4507)">
<stop stop-color="#E7DFE7"/>
<stop offset="1" stop-color="#E7DFE7" stop-opacity="0"/>
</radialGradient>
<radialGradient id="paint6_radial_13419_45220" cx="0" cy="0" r="1" gradientUnits="userSpaceOnUse" gradientTransform="translate(13.5323 22.3398) rotate(-7.17767) scale(3.71456 0.230765)">
<stop offset="0.946697" stop-color="#7E6693"/>
<stop offset="1" stop-color="#7E6693" stop-opacity="0"/>
</radialGradient>
<radialGradient id="paint7_radial_13419_45220" cx="0" cy="0" r="1" gradientUnits="userSpaceOnUse" gradientTransform="translate(13.6072 24.4872) rotate(-7.95308) scale(3.50257 0.217596)">
<stop offset="0.946697" stop-color="#7E6693"/>
<stop offset="1" stop-color="#7E6693" stop-opacity="0"/>
</radialGradient>
<radialGradient id="paint8_radial_13419_45220" cx="0" cy="0" r="1" gradientUnits="userSpaceOnUse" gradientTransform="translate(17.4443 7.10917) rotate(138.066) scale(8.67448 7.15289)">
<stop offset="0.286168" stop-color="#FFEC87"/>
<stop offset="1" stop-color="#FFCD4B"/>
</radialGradient>
<radialGradient id="paint9_radial_13419_45220" cx="0" cy="0" r="1" gradientUnits="userSpaceOnUse" gradientTransform="translate(18.2647 11.7576) rotate(-147.604) scale(12.7592 12.2726)">
<stop offset="0.622387" stop-color="#FFB239" stop-opacity="0"/>
<stop offset="1" stop-color="#FFB239"/>
</radialGradient>
<linearGradient id="paint10_linear_13419_45220" x1="14.5939" y1="7.02398" x2="17.5877" y2="4.69113" gradientUnits="userSpaceOnUse">
<stop stop-color="white" stop-opacity="0"/>
<stop offset="0.594121" stop-color="white"/>
</linearGradient>
<linearGradient id="paint11_linear_13419_45220" x1="17.5877" y1="9.62244" x2="14.083" y2="17.9719" gradientUnits="userSpaceOnUse">
<stop stop-color="#FFBF5C"/>
<stop offset="1" stop-color="#FFBF5C" stop-opacity="0"/>
</linearGradient>
<linearGradient id="paint12_linear_13419_45220" x1="14.1086" y1="24.0384" x2="14.1774" y2="25.1009" gradientUnits="userSpaceOnUse">
<stop stop-color="#B1969A"/>
<stop offset="1" stop-color="#DAD2E2"/>
</linearGradient>
<linearGradient id="paint13_linear_13419_45220" x1="14.9584" y1="24.9742" x2="14.9562" y2="24.2819" gradientUnits="userSpaceOnUse">
<stop stop-color="#8A68A9"/>
<stop offset="1" stop-color="#DEC2E3" stop-opacity="0"/>
</linearGradient>
<linearGradient id="paint14_linear_13419_45220" x1="10.4712" y1="24.5756" x2="12.9101" y2="24.4457" gradientUnits="userSpaceOnUse">
<stop stop-color="#958387"/>
<stop offset="1" stop-color="#958387" stop-opacity="0"/>
</linearGradient>
<radialGradient id="paint15_radial_13419_45220" cx="0" cy="0" r="1" gradientUnits="userSpaceOnUse" gradientTransform="translate(16.5908 24.3594) rotate(90.3213) scale(0.732818 4.33747)">
<stop offset="0.126697" stop-color="#FCF0FC"/>
<stop offset="1" stop-color="#E5C9E3" stop-opacity="0"/>
</radialGradient>
<linearGradient id="paint16_linear_13419_45220" x1="14.1086" y1="21.9588" x2="14.1774" y2="23.0213" gradientUnits="userSpaceOnUse">
<stop stop-color="#B1969A"/>
<stop offset="1" stop-color="#DAD2E2"/>
</linearGradient>
<linearGradient id="paint17_linear_13419_45220" x1="14.9584" y1="22.8946" x2="14.9562" y2="22.2023" gradientUnits="userSpaceOnUse">
<stop stop-color="#8A68A9"/>
<stop offset="1" stop-color="#DEC2E3" stop-opacity="0"/>
</linearGradient>
<linearGradient id="paint18_linear_13419_45220" x1="10.4712" y1="22.496" x2="12.9101" y2="22.3661" gradientUnits="userSpaceOnUse">
<stop stop-color="#958387"/>
<stop offset="1" stop-color="#958387" stop-opacity="0"/>
</linearGradient>
<radialGradient id="paint19_radial_13419_45220" cx="0" cy="0" r="1" gradientUnits="userSpaceOnUse" gradientTransform="translate(16.5908 22.2798) rotate(90.3213) scale(0.732818 4.33747)">
<stop offset="0.126697" stop-color="#FCF0FC"/>
<stop offset="1" stop-color="#E5C9E3" stop-opacity="0"/>
</radialGradient>
</defs>
</svg>
